<?xml version="1.0" encoding="UTF-8" standalone="no"?>
<!DOCTYPE svg PUBLIC "-//W3C//DTD SVG 1.1//EN" "http://www.w3.org/Graphics/SVG/1.1/DTD/svg11.dtd">
<svg width="100%" height="100%" viewBox="0 0 290 293" version="1.1" xmlns="http://www.w3.org/2000/svg" xmlns:xlink="http://www.w3.org/1999/xlink" xml:space="preserve" style="fill-rule:evenodd;clip-rule:evenodd;stroke-linejoin:round;stroke-miterlimit:1.41421;">
    <g transform="matrix(1,0,0,1,-42.5468,-431.116)">
        <g transform="matrix(0.763879,0,0,1,13.7498,0)">
            <g id="Ajouter" transform="matrix(2.40466,0,0,1.83687,-1120.85,-387.203)">
                <g id="Wazo" transform="matrix(-1,0,0,1,1154.92,0)">
                    <g transform="matrix(2.16658,1.25088,-1.25088,2.16658,-538.556,-1561.74)">
                        <path d="M813.993,471.239C814.213,471.239 814.712,471.354 815.489,471.585C816.926,471.714 817.644,471.815 817.644,471.891C817.59,471.992 817.29,472.057 816.743,472.084L816.397,472.084C815.577,472.084 815.079,472.665 814.902,473.828L814.902,474.512C815.213,475.67 815.368,476.348 815.368,476.546C815.368,477.077 815.202,477.742 814.87,478.541C814.564,479.162 813.929,479.921 812.964,480.816C812.38,481.197 812.087,481.489 812.087,481.693C811.755,482.299 811.589,482.703 811.589,482.907C811.589,483.314 811.766,484.094 812.12,485.247C812.195,485.772 812.321,486.035 812.497,486.035L812.594,486.035C812.723,486.035 812.972,485.992 813.342,485.906L813.342,485.939C813.235,486.062 813.181,486.134 813.181,486.156C813.245,486.188 813.277,486.22 813.277,486.252C813.572,486.231 813.832,486.188 814.057,486.124C814.057,486.182 814.036,486.244 813.993,486.308C813.639,486.341 813.462,486.394 813.462,486.469L813.527,486.558L813.43,486.719C813.227,486.719 812.739,486.552 811.967,486.22L811.935,486.22L811.372,486.341C811.313,486.239 811.197,486.188 811.026,486.188C811.026,486.156 811.069,486.124 811.155,486.091L811.589,486.188C811.744,486.188 811.881,486.145 811.999,486.059C811.999,485.914 811.76,484.781 811.283,482.658L811.436,482.039C811.436,482.017 811.425,481.985 811.404,481.942C810.921,482.296 810.38,482.473 809.78,482.473C809.512,482.966 809.179,484.017 808.782,485.625C808.825,485.711 808.887,485.772 808.967,485.81C809.037,485.81 809.214,485.759 809.498,485.657L809.53,485.657C809.53,485.759 809.501,485.821 809.442,485.842L809.498,485.939C809.916,485.917 810.208,485.874 810.375,485.81L810.407,485.81L810.407,485.874C810.407,485.965 810.168,486.048 809.691,486.124L809.747,486.22C809.742,486.263 809.691,486.303 809.595,486.341C809.235,486.341 808.892,486.185 808.565,485.874C808.437,485.874 808.187,485.917 807.817,486.003C807.716,485.939 807.622,485.906 807.536,485.906L807.536,485.842C807.59,485.842 807.673,485.853 807.785,485.874C808.214,485.81 808.474,485.716 808.565,485.593C809.107,483.99 809.377,482.971 809.377,482.537C809.377,482.392 809.316,482.32 809.193,482.32C808.265,482.701 807.598,483.314 807.19,484.161C807.158,484.419 806.504,485.26 805.228,486.686C804.692,487.046 804.357,487.306 804.223,487.466C803.649,487.82 803.079,487.997 802.51,487.997C802.473,487.997 802.411,487.976 802.325,487.933C801.929,487.681 801.73,487.327 801.73,486.871C801.752,486.812 801.773,486.783 801.795,486.783C801.837,486.483 802.076,486.065 802.51,485.528C803.041,484.773 803.716,484.057 804.537,483.381C805.1,482.894 805.62,482.103 806.097,481.009C806.397,480.237 807.241,479.122 808.63,477.664C809.6,476.721 810.431,476.045 811.122,475.638C812.184,475.112 812.715,474.665 812.715,474.295C812.715,474.166 812.674,473.689 812.594,472.864C812.599,472.579 812.701,472.215 812.9,471.77C813.253,471.416 813.618,471.239 813.993,471.239Z" style="fill:rgb(76,50,50);fill-rule:nonzero;"/>
                    </g>
                    <g transform="matrix(-2.50176,0,-1.55431e-15,2.50176,2677.96,-644.439)">
                        <path d="M819.871,471.175C820.027,471.175 820.292,471.255 820.667,471.416C820.957,471.593 821.169,471.751 821.303,471.891C821.437,472.089 821.576,472.325 821.721,472.598C821.882,472.78 822.19,472.965 822.646,473.153C822.646,473.164 822.694,473.212 822.79,473.298L822.79,473.338C822.485,473.386 822.12,473.418 821.697,473.434C821.45,473.504 821.166,473.906 820.844,474.641C820.791,474.866 820.764,475.024 820.764,475.115C820.764,475.464 820.759,476.257 820.748,477.495C820.705,477.629 820.665,477.854 820.627,478.171C820.595,478.171 820.549,478.329 820.49,478.645C820.174,479.122 820.008,479.433 819.992,479.578C819.858,479.637 819.66,479.854 819.397,480.229C818.893,480.744 818.577,481.001 818.448,481.001C818.137,481.237 817.614,481.489 816.88,481.757C815.4,481.897 814.661,482.022 814.661,482.135C814.559,482.135 814.508,482.199 814.508,482.328L814.508,482.489C814.54,482.58 814.856,482.725 815.457,482.923C815.575,482.998 815.918,483.124 816.486,483.301C817.306,483.596 817.866,483.872 818.167,484.129C818.322,484.172 818.547,484.207 818.842,484.234C819.694,484.153 820.335,484.019 820.764,483.832C820.957,483.698 821.386,483.534 822.05,483.341C822.688,483.052 823.225,482.84 823.659,482.706C823.884,482.588 824.082,482.462 824.254,482.328L824.27,482.328L824.27,484.33L824.254,484.33C824.168,484.223 823.879,484.132 823.385,484.057L823.048,484.057C823.015,484.057 822.863,484.102 822.589,484.194C822.445,484.167 822.351,484.153 822.308,484.153C822.099,484.191 821.841,484.223 821.536,484.25C821.536,484.271 821.477,484.293 821.359,484.314C821.316,484.287 821.276,484.274 821.238,484.274C820.482,484.403 819.941,484.539 819.614,484.684C819.576,484.706 819.558,484.719 819.558,484.724L819.461,484.708C819.392,484.708 819.257,484.714 819.059,484.724C818.839,484.66 818.636,484.628 818.448,484.628C818.421,484.66 818.408,484.687 818.408,484.708C818.435,484.794 818.448,484.853 818.448,484.885C818.287,485.057 818.175,485.142 818.11,485.142L817.756,485.142L817.282,485.223C817.239,485.223 817.1,485.156 816.864,485.022L816.84,485.022C816.818,485.022 816.706,485.108 816.502,485.279L816.389,485.303C816.363,485.303 816.304,485.282 816.213,485.239C814.754,485.604 814.025,485.869 814.025,486.035C814.025,486.314 813.915,486.472 813.696,486.51C813.626,486.558 813.505,486.689 813.334,486.904C813.237,486.957 813.173,486.984 813.141,486.984L813.036,486.928L812.996,486.928C812.782,487.115 812.524,487.346 812.224,487.619C812.122,487.705 811.811,487.885 811.291,488.158C811.291,488.19 811.2,488.217 811.018,488.238L810.881,488.238C810.72,488.238 810.64,488.177 810.64,488.053L810.64,488.013L811.074,487.756L811.074,487.74C811.058,487.74 811.034,487.713 811.002,487.659L811.002,487.643C811.195,487.622 811.452,487.469 811.774,487.185C812.042,486.895 812.286,486.665 812.506,486.493C812.398,486.333 812.345,486.225 812.345,486.172C812.398,486.145 812.425,486.113 812.425,486.075C812.291,485.839 812.061,485.721 811.734,485.721C810.935,485.48 810.214,485.201 809.57,484.885C809.335,484.885 808.847,484.673 808.107,484.25L807.705,484.097C807.555,484.097 807.292,484.188 806.917,484.371C806.649,484.58 806.504,484.77 806.483,484.941C806.418,485.054 806.351,485.134 806.282,485.183L806.266,485.142L806.266,485.086C806.357,484.984 806.402,484.925 806.402,484.909L806.322,484.845L806.266,484.845C806.233,484.845 806.126,484.904 805.944,485.022C805.805,485.102 805.665,485.156 805.526,485.183C805.338,485.29 805.161,485.448 804.995,485.657C804.968,485.657 804.955,485.644 804.955,485.617L804.955,485.561L805.212,485.279C805.078,485.204 805.011,485.159 805.011,485.142C805.016,485.116 805.03,485.102 805.051,485.102L805.116,485.142C805.309,485.142 805.531,485.057 805.783,484.885C805.933,484.832 806.14,484.714 806.402,484.531C806.772,484.178 807.075,483.958 807.311,483.872C807.311,483.856 807.161,483.698 806.861,483.398C806.78,483.258 806.705,482.902 806.635,482.328C806.625,482.328 806.619,482.323 806.619,482.312L806.619,482.288C806.625,482.224 806.638,482.191 806.66,482.191C806.777,482.191 806.836,482.237 806.836,482.328C806.799,482.462 806.78,482.556 806.78,482.61C806.78,482.92 807.083,483.296 807.689,483.735C807.721,483.735 807.767,483.762 807.826,483.816C808.04,483.96 808.351,484.1 808.758,484.234C809.423,484.486 810.01,484.671 810.519,484.789C810.702,484.907 810.986,485.011 811.372,485.102C811.372,485.129 811.57,485.188 811.967,485.279C811.994,485.322 812.165,485.362 812.481,485.4C812.508,485.4 812.556,485.354 812.626,485.263C812.637,485.263 812.656,485.255 812.682,485.239L812.779,485.36C812.859,485.327 812.9,485.287 812.9,485.239C812.744,484.783 812.473,484.164 812.087,483.381C812.018,483.167 811.9,482.923 811.734,482.65C811.053,483.143 810.562,483.518 810.262,483.775C810.09,483.974 809.967,484.153 809.892,484.314L809.868,484.314C809.857,484.287 809.852,484.266 809.852,484.25C810.05,483.644 810.326,483.162 810.68,482.802C810.97,482.336 811.136,482.001 811.179,481.797C811.206,481.797 811.219,481.784 811.219,481.757L811.219,481.717C811.214,481.685 811.066,481.626 810.777,481.54C810.487,481.368 810.297,481.275 810.206,481.259C809.965,481.425 809.772,481.519 809.627,481.54C809.595,481.556 809.418,481.746 809.096,482.111C808.544,482.636 808.142,483.001 807.89,483.205L807.866,483.205C807.839,483.205 807.826,483.191 807.826,483.164C808.115,482.703 808.34,482.384 808.501,482.207C808.501,482.175 808.632,481.98 808.895,481.62C808.943,481.519 808.983,481.371 809.016,481.178C809.107,481.012 809.152,480.907 809.152,480.865L809.136,480.865C808.745,480.929 808.163,480.982 807.391,481.025C807.054,481.1 806.751,481.159 806.483,481.202C806.311,481.283 805.901,481.368 805.252,481.46C805.065,481.551 804.727,481.682 804.239,481.854C804.148,481.923 803.936,482.036 803.604,482.191C803.604,482.224 803.368,482.341 802.896,482.545C802.671,482.744 802.513,482.843 802.422,482.843L802.398,482.843C802.371,482.843 802.357,482.829 802.357,482.802C802.427,482.701 802.462,482.642 802.462,482.626L802.438,482.529C802.556,482.497 802.615,482.438 802.615,482.352L802.615,482.328C802.615,482.226 802.564,482.175 802.462,482.175L802.382,482.175C802.001,482.207 801.781,482.253 801.722,482.312L801.409,482.312C801.382,482.312 801.368,482.291 801.368,482.248C801.443,482.119 801.583,482.02 801.787,481.95C801.84,481.838 802.044,481.733 802.398,481.637C802.473,481.551 802.658,481.484 802.953,481.435C803.006,481.334 803.322,481.197 803.901,481.025C804.555,480.682 805.078,480.476 805.469,480.406L806.483,479.988L807.85,479.377C809.763,478.739 810.932,478.216 811.356,477.809C811.726,477.455 812.002,477.211 812.184,477.077C813.524,475.994 814.733,474.78 815.81,473.434C815.886,473.209 816.389,472.646 817.322,471.746C817.746,471.419 818.121,471.255 818.448,471.255C818.737,471.212 819.212,471.186 819.871,471.175ZM812.481,482.111C812.337,482.159 812.264,482.232 812.264,482.328L812.264,482.352C812.377,482.931 812.562,483.545 812.819,484.194C813.141,484.944 813.366,485.327 813.495,485.344C813.548,485.37 813.594,485.384 813.631,485.384C814.237,485.266 814.687,485.126 814.982,484.966C815.91,484.746 816.491,484.529 816.727,484.314C816.872,484.159 816.958,484.06 816.985,484.017C816.427,483.647 815.408,483.269 813.929,482.883C813.918,482.829 813.773,482.679 813.495,482.433L813.479,482.328L813.479,482.095L813.454,482.095C813.272,482.095 812.948,482.1 812.481,482.111Z" style="fill:rgb(76,50,50);fill-rule:nonzero;"/>
                    </g>
                    <g transform="matrix(-2.16658,1.25088,1.25088,2.16658,1724.78,-1545.52)">
                        <path d="M828.685,471.384C829.376,471.384 829.998,471.732 830.55,472.429C831.124,472.88 831.41,473.381 831.41,473.933C831.566,474.571 831.826,474.89 832.19,474.89L832.416,475.212L832.416,475.252L832.367,475.252C831.96,475.193 831.703,475.163 831.595,475.163C831.499,475.222 831.424,475.252 831.37,475.252C831.37,475.209 831.325,475.163 831.234,475.115C830.279,475.673 829.612,476.128 829.231,476.482C829.489,476.482 829.716,476.999 829.915,478.034C829.588,479.358 829.223,480.283 828.821,480.808C828.387,481.377 828.052,481.695 827.816,481.765C827.645,482.006 827.13,482.462 826.272,483.132C825.623,483.4 825.002,483.856 824.407,484.499L824.407,484.588C824.412,484.743 824.927,485.046 825.95,485.496C825.95,485.459 826.042,485.384 826.224,485.271C826.283,485.282 826.312,485.311 826.312,485.36L826.312,485.593C826.666,485.684 826.894,485.73 826.996,485.73C827.189,485.665 827.312,485.633 827.366,485.633L827.502,485.906L827.366,486.003L827.406,486.091L827.406,486.14L827.366,486.14C826.873,485.984 826.492,485.906 826.224,485.906L826.087,485.906L825.814,485.955C825.717,485.896 825.626,485.866 825.54,485.866C824.983,486.134 824.634,486.268 824.495,486.268C824.495,486.225 824.433,486.182 824.31,486.14C824.31,486.311 824.235,486.432 824.085,486.501C824.026,486.501 823.996,486.469 823.996,486.405C823.996,486.115 824.224,485.904 824.68,485.77C824.68,485.711 824.726,485.681 824.817,485.681L824.994,485.77L825.179,485.681C825.007,485.204 824.415,484.915 823.401,484.813C823.182,484.845 823.045,484.877 822.991,484.909C822.959,484.85 822.943,484.805 822.943,484.773L822.629,484.773C822.453,484.923 822.3,484.998 822.171,484.998C822.171,484.939 822.142,484.909 822.083,484.909L822.034,484.909C822.008,484.909 821.887,484.939 821.673,484.998L821.488,484.998L821.399,484.95C821.458,484.853 821.488,484.778 821.488,484.724L821.351,484.636L821.214,484.636L821.078,484.724C821.035,484.724 820.989,484.679 820.941,484.588C820.41,484.588 820.016,484.695 819.759,484.909C819.684,484.909 818.729,485.258 816.896,485.955C815.223,486.619 813.16,487.212 810.704,487.732C809.064,488.064 807.986,488.23 807.472,488.23C807.289,488.23 807,488.201 806.603,488.142L806.603,488.094C806.603,487.927 806.877,487.775 807.423,487.635L807.834,487.635C807.876,487.635 807.922,487.59 807.97,487.499C807.927,487.499 807.882,487.453 807.834,487.362C810.391,486.558 812.12,485.799 813.02,485.086C812.961,485.059 812.916,485.046 812.883,485.046C812.079,485.062 810.852,485.411 809.201,486.091L809.241,486.003C809.182,485.971 809.136,485.955 809.104,485.955C808.396,486.078 807.882,486.14 807.56,486.14L807.375,486.091C805.536,486.424 803.99,486.756 802.735,487.088L802.735,487C805.587,486.212 807.075,485.772 807.198,485.681C807.198,485.569 807.667,485.402 808.606,485.183C809.206,485 810.664,484.392 812.98,483.357C813.993,482.955 815.237,482.135 816.711,480.897L816.663,480.808C821.793,476.348 824.449,474.118 824.632,474.118C825.195,473.92 825.605,473.585 825.862,473.113C825.975,472.679 826.489,472.193 827.406,471.657C827.438,471.657 827.484,471.644 827.543,471.617L827.864,471.657C828.106,471.657 828.226,471.598 828.226,471.48L828.451,471.48C828.607,471.48 828.685,471.448 828.685,471.384ZM802.647,487.048L802.647,487.137C802.577,487.137 802.213,487.273 801.553,487.547C801.5,487.515 801.438,487.499 801.368,487.499L801.368,487.41L802.647,487.048Z" style="fill:rgb(76,50,50);fill-rule:nonzero;"/>
                    </g>
                    <g transform="matrix(2.50176,0,0,2.50176,-1465.26,-733.449)">
                        <path d="M805.381,471.247L805.469,471.247C806.729,471.247 807.616,471.896 808.131,473.193C808.388,474.046 808.74,474.595 809.185,474.842C810.868,475.587 813.473,476.305 817.001,476.997C817.494,477.082 817.957,477.125 818.392,477.125C819.089,477.125 821.989,476.927 827.092,476.53C827.398,476.53 827.61,476.841 827.728,477.463L827.728,477.503C827.728,477.841 827.009,478.01 825.573,478.01C824.522,478.085 822.721,478.168 820.169,478.259C819.392,478.656 818.491,478.98 817.467,479.232C817.119,479.393 816.582,479.747 815.859,480.294C815.559,480.572 815.36,480.712 815.264,480.712C815.173,480.712 814.596,481.079 813.535,481.813C813.787,481.985 813.913,482.181 813.913,482.4C814.17,484.352 814.326,485.365 814.379,485.44C814.47,485.386 814.54,485.36 814.588,485.36C815.419,485.333 815.955,485.319 816.196,485.319C816.207,485.373 816.234,485.4 816.277,485.4L816.325,485.4L816.446,485.319C816.891,485.319 817.652,485.432 818.729,485.657C818.729,486.107 818.673,486.333 818.561,486.333C818.309,486.333 818.183,486.402 818.183,486.542C818.102,486.515 817.751,486.501 817.129,486.501C817.129,486.555 817.1,486.582 817.041,486.582L816.406,486.582C814.915,486.582 813.578,486.85 812.393,487.386C812.339,487.386 812.002,487.472 811.38,487.643C810.838,487.81 810.471,487.893 810.278,487.893L809.691,487.893C809.482,487.893 808.989,487.992 808.212,488.19C808.212,488.131 808.169,488.102 808.083,488.102C807.901,488.161 807.775,488.19 807.705,488.19L807.029,488.19L807.029,488.102C807.115,488.102 807.214,488.019 807.327,487.852L807.239,487.812L807.158,487.812L807.029,487.893L806.861,487.852C806.748,487.938 806.55,487.994 806.266,488.021C806.266,488.075 806.252,488.102 806.225,488.102C806.134,488.048 806.051,488.021 805.976,488.021L805.719,488.102L805.638,488.061C805.531,488.12 805.419,488.15 805.301,488.15C805.006,488.005 804.821,487.933 804.746,487.933L804.625,488.021C804.416,487.962 804.274,487.933 804.199,487.933C803.915,487.992 803.746,488.021 803.692,488.021C803.381,487.952 803.226,487.866 803.226,487.764C803.419,487.244 803.561,486.979 803.652,486.968C804.499,486.287 805.357,485.947 806.225,485.947C806.359,485.893 806.485,485.797 806.603,485.657C807.161,485.512 807.584,485.44 807.874,485.44C808.083,485.585 808.238,485.657 808.34,485.657C808.967,485.657 809.418,485.614 809.691,485.528C809.702,485.582 809.729,485.609 809.772,485.609C810.265,485.609 810.702,485.019 811.082,483.84C811.141,483.84 811.171,483.714 811.171,483.462C811.015,483.188 810.621,482.709 809.989,482.022C809.796,481.905 809.302,481.722 808.509,481.476C806.333,480.355 805.008,479.031 804.537,477.503C804.365,477.08 804.239,476.08 804.159,474.504C803.853,473.528 803.473,472.922 803.017,472.687C802.765,472.601 802.553,472.558 802.382,472.558L801.368,472.558L801.368,472.478C801.669,472.376 802.232,472.263 803.057,472.14C803.786,471.545 804.561,471.247 805.381,471.247ZM811.717,482.063C811.669,482.127 811.613,482.521 811.549,483.245L811.589,483.542L810.664,485.488L810.704,485.488L813.832,485.319L814.001,485.4L814.001,485.231C813.846,483.178 813.605,482.151 813.277,482.151C813.272,482.092 813.176,482.049 812.988,482.022L812.859,482.022C812.618,482.022 812.237,482.036 811.717,482.063Z" style="fill:rgb(76,50,50);fill-rule:nonzero;"/>
                    </g>
                </g>
                <g>
                    <g transform="matrix(0.824002,0,0,0.824002,202.005,87.0532)">
                        <rect x="416" y="498" width="80" height="110" style="fill:rgb(248,245,228);"/>
                    </g>
                    <g id="Jumelle" transform="matrix(0.10198,0,0,0.10198,552.32,502.177)">
                        <g transform="matrix(1.65945,0,0,2.05742,-805.41,-1884.05)">
                            <path d="M766,999.328C766,977.071 743.596,959 716,959C688.404,959 666,977.071 666,999.328L666,1050.84C666,1061.96 677.202,1071 691,1071L741,1071C754.798,1071 766,1061.96 766,1050.84L766,999.328Z" style="fill:rgb(39,50,57);"/>
                            <clipPath id="_clip1">
                                <path d="M766,999.328C766,977.071 743.596,959 716,959C688.404,959 666,977.071 666,999.328L666,1050.84C666,1061.96 677.202,1071 691,1071L741,1071C754.798,1071 766,1061.96 766,1050.84L766,999.328Z"/>
                            </clipPath>
                            <g clip-path="url(#_clip1)">
                                <g transform="matrix(3.84795e-17,0.506862,-0.492376,2.43175e-17,1087.25,939.088)">
                                    <path d="M116.959,652.452C95.789,652.452 39.286,675.767 39.286,754C39.286,832.233 95.742,855.548 116.912,855.548C72.552,836.415 66.136,786.71 66.136,754C66.136,721.29 69.61,674.31 116.959,652.452Z" style="fill:rgb(41,71,95);"/>
                                </g>
                            </g>
                        </g>
                        <g transform="matrix(1.65945,0,0,2.05742,-1070.92,-1884.05)">
                            <path d="M766,999.328C766,977.071 743.596,959 716,959C688.404,959 666,977.071 666,999.328L666,1050.84C666,1061.96 677.202,1071 691,1071L741,1071C754.798,1071 766,1061.96 766,1050.84L766,999.328Z" style="fill:rgb(39,50,57);"/>
                            <clipPath id="_clip2">
                                <path d="M766,999.328C766,977.071 743.596,959 716,959C688.404,959 666,977.071 666,999.328L666,1050.84C666,1061.96 677.202,1071 691,1071L741,1071C754.798,1071 766,1061.96 766,1050.84L766,999.328Z"/>
                            </clipPath>
                            <g clip-path="url(#_clip2)">
                                <g transform="matrix(3.84795e-17,0.506862,-0.492376,2.43175e-17,1087.25,939.088)">
                                    <path d="M116.959,652.452C95.789,652.452 39.286,675.767 39.286,754C39.286,832.233 95.742,855.548 116.912,855.548C72.552,836.415 66.136,786.71 66.136,754C66.136,721.29 69.61,674.31 116.959,652.452Z" style="fill:rgb(41,71,95);"/>
                                </g>
                            </g>
                        </g>
                        <g transform="matrix(1.64908,0,0,2.68739,-802.921,-1490.89)">
                            <g transform="matrix(1.21461,0,0,1.14351,-159.506,-559.623)">
                                <path d="M697,1047C697,1047 679.226,1041 657,1041C626.945,1041 617,1047 617,1047L617,1068C617,1068 627.008,1062 656.949,1062C679.271,1062 697,1068 697,1068L697,1047Z" style="fill:rgb(39,50,57);"/>
                                <clipPath id="_clip3">
                                    <path d="M697,1047C697,1047 679.226,1041 657,1041C626.945,1041 617,1047 617,1047L617,1068C617,1068 627.008,1062 656.949,1062C679.271,1062 697,1068 697,1068L697,1047Z"/>
                                </clipPath>
                                <g clip-path="url(#_clip3)">
                                    <g transform="matrix(-1.73802e-17,0.325409,-0.758876,-4.11106e-16,1360.49,970.037)">
                                        <path d="M242,892.26C242,892.26 231.285,890.065 226.523,891.992C212.123,897.82 202,911.531 202,927.5C202,942.594 211.044,955.67 224.195,961.979C229.559,964.552 242,963.392 242,963.392C242,963.392 233,942.437 233,927.5C233,912.563 242,892.26 242,892.26Z" style="fill:rgb(41,71,95);"/>
                                    </g>
                                </g>
                            </g>
                            <g transform="matrix(0.910781,0,0,0.800457,40.1072,-189.537)">
                                <path d="M697,1047C697,1047 679.226,1041 657,1041C626.945,1041 617,1047 617,1047L617,1068C617,1068 627.008,1062 656.949,1062C679.271,1062 697,1068 697,1068L697,1047Z" style="fill:rgb(39,50,57);"/>
                            </g>
                        </g>
                        <g transform="matrix(1.65945,0,0,1.65945,-473.52,-1449.52)">
                            <circle cx="356" cy="1042" r="50" style="fill:rgb(52,100,115);"/>
                        </g>
                        <g transform="matrix(1.65945,0,0,1.65945,-208.008,-1449.52)">
                            <circle cx="356" cy="1042" r="50" style="fill:rgb(52,100,115);"/>
                        </g>
                    </g>
                    <g id="plus" transform="matrix(2.06,0,0,2.06,553.096,537.878)">
                        <path d="M18.999,12.998L12.999,12.998L12.999,18.998L10.999,18.998L10.999,12.998L4.999,12.998L4.999,10.998L10.999,10.998L10.999,4.998L12.999,4.998L12.999,10.998L18.999,10.998L18.999,12.998Z" style="fill:rgb(117,179,80);fill-rule:nonzero;"/>
                    </g>
                    <g id="ic_stay_primary_portrait_24px" transform="matrix(5.71837,0,0,5.71837,509.166,473.282)">
                        <path d="M17,1.01L7,1C5.9,1 5.01,1.9 5.01,3L5.01,21C5.01,22.1 5.9,23 7,23L17,23C18.1,23 19,22.1 19,21L19,3C19,1.9 18.1,1.01 17,1.01ZM17,19L7,19L7,5L17,5L17,19Z" style="fill:rgb(39,50,57);fill-rule:nonzero;"/>
                    </g>
                </g>
            </g>
        </g>
    </g>
</svg>
