<?xml version="1.0" encoding="UTF-8" standalone="no"?>
<!DOCTYPE svg PUBLIC "-//W3C//DTD SVG 1.1//EN" "http://www.w3.org/Graphics/SVG/1.1/DTD/svg11.dtd">
<svg width="100%" height="100%" viewBox="0 0 600 381" version="1.1" xmlns="http://www.w3.org/2000/svg" xmlns:xlink="http://www.w3.org/1999/xlink" xml:space="preserve" style="fill-rule:evenodd;clip-rule:evenodd;stroke-linejoin:round;stroke-miterlimit:1.41421;">
    <g transform="matrix(1,0,0,1,-336,-702.25)">
        <g transform="matrix(0.99375,0,0,1.61944,0,212)">
            <g id="Jumelle" transform="matrix(1.39938,0,0,0.858712,290.154,226.284)">
                <g transform="matrix(1.65945,0,0,2.05742,-805.41,-1884.05)">
                    <path d="M766,999.328C766,977.071 743.596,959 716,959C688.404,959 666,977.071 666,999.328L666,1050.84C666,1061.96 677.202,1071 691,1071L741,1071C754.798,1071 766,1061.96 766,1050.84L766,999.328Z" style="fill:rgb(52,100,115);"/>
                    <clipPath id="_clip1">
                        <path d="M766,999.328C766,977.071 743.596,959 716,959C688.404,959 666,977.071 666,999.328L666,1050.84C666,1061.96 677.202,1071 691,1071L741,1071C754.798,1071 766,1061.96 766,1050.84L766,999.328Z"/>
                    </clipPath>
                    <g clip-path="url(#_clip1)">
                        <g transform="matrix(3.84795e-17,0.506862,-0.492376,2.43175e-17,1087.25,939.088)">
                            <path d="M116.959,652.452C95.789,652.452 39.286,675.767 39.286,754C39.286,832.233 95.742,855.548 116.912,855.548C72.552,836.415 66.136,786.71 66.136,754C66.136,721.29 69.61,674.31 116.959,652.452Z" style="fill:rgb(41,71,95);"/>
                        </g>
                    </g>
                </g>
                <g transform="matrix(1.65945,0,0,2.05742,-1070.92,-1884.05)">
                    <path d="M766,999.328C766,977.071 743.596,959 716,959C688.404,959 666,977.071 666,999.328L666,1050.84C666,1061.96 677.202,1071 691,1071L741,1071C754.798,1071 766,1061.96 766,1050.84L766,999.328Z" style="fill:rgb(52,100,115);"/>
                    <clipPath id="_clip2">
                        <path d="M766,999.328C766,977.071 743.596,959 716,959C688.404,959 666,977.071 666,999.328L666,1050.84C666,1061.96 677.202,1071 691,1071L741,1071C754.798,1071 766,1061.96 766,1050.84L766,999.328Z"/>
                    </clipPath>
                    <g clip-path="url(#_clip2)">
                        <g transform="matrix(3.84795e-17,0.506862,-0.492376,2.43175e-17,1087.25,939.088)">
                            <path d="M116.959,652.452C95.789,652.452 39.286,675.767 39.286,754C39.286,832.233 95.742,855.548 116.912,855.548C72.552,836.415 66.136,786.71 66.136,754C66.136,721.29 69.61,674.31 116.959,652.452Z" style="fill:rgb(41,71,95);"/>
                        </g>
                    </g>
                </g>
                <g transform="matrix(1.64908,0,0,2.68739,-802.921,-1490.89)">
                    <g transform="matrix(1.21461,0,0,1.14351,-159.506,-559.623)">
                        <path d="M697,1047C697,1047 679.226,1041 657,1041C626.945,1041 617,1047 617,1047L617,1068C617,1068 627.008,1062 656.949,1062C679.271,1062 697,1068 697,1068L697,1047Z" style="fill:rgb(52,100,115);"/>
                        <clipPath id="_clip3">
                            <path d="M697,1047C697,1047 679.226,1041 657,1041C626.945,1041 617,1047 617,1047L617,1068C617,1068 627.008,1062 656.949,1062C679.271,1062 697,1068 697,1068L697,1047Z"/>
                        </clipPath>
                        <g clip-path="url(#_clip3)">
                            <g transform="matrix(-1.73802e-17,0.325409,-0.758876,-4.11106e-16,1360.49,970.037)">
                                <path d="M242,892.26C242,892.26 231.285,890.065 226.523,891.992C212.123,897.82 202,911.531 202,927.5C202,942.594 211.044,955.67 224.195,961.979C229.559,964.552 242,963.392 242,963.392C242,963.392 233,942.437 233,927.5C233,912.563 242,892.26 242,892.26Z" style="fill:rgb(41,71,95);"/>
                            </g>
                        </g>
                    </g>
                    <g transform="matrix(0.910781,0,0,0.800457,40.1072,-189.537)">
                        <path d="M697,1047C697,1047 679.226,1041 657,1041C626.945,1041 617,1047 617,1047L617,1068C617,1068 627.008,1062 656.949,1062C679.271,1062 697,1068 697,1068L697,1047Z" style="fill:rgb(117,179,80);"/>
                    </g>
                </g>
                <g transform="matrix(1.65945,0,0,1.65945,-473.52,-1449.52)">
                    <circle cx="356" cy="1042" r="50" style="fill:rgb(117,179,80);"/>
                </g>
                <g transform="matrix(1.65945,0,0,1.65945,-208.008,-1449.52)">
                    <circle cx="356" cy="1042" r="50" style="fill:rgb(117,179,80);"/>
                </g>
                <g transform="matrix(1.26373,0,0,1.26373,-332.646,-1037.19)">
                    <circle cx="356" cy="1042" r="50" style="fill:rgb(56,129,122);"/>
                    <clipPath id="_clip4">
                        <circle cx="356" cy="1042" r="50"/>
                    </clipPath>
                    <g clip-path="url(#_clip4)">
                        <g id="Logo-3" transform="matrix(0.483339,0,0,0.483339,237.834,924.538)">
                            <g transform="matrix(0.890618,0,0,0.890618,-2.20119,-529.166)">
                                <circle cx="277" cy="867" r="175" style="fill:rgb(56,129,122);"/>
                            </g>
                            <g transform="matrix(0.381693,0,0,0.381693,138.771,-87.9282)">
                                <circle cx="277" cy="867" r="175" style="fill:rgb(248,245,228);"/>
                            </g>
                            <g transform="matrix(0.127231,0,0,0.127231,209.257,132.691)">
                                <circle cx="277" cy="867" r="175" style="fill:rgb(52,100,115);"/>
                            </g>
                            <g transform="matrix(0.0534371,0,0,0.040714,225.69,197.014)">
                                <circle cx="277" cy="867" r="175" style="fill:rgb(248,245,228);"/>
                            </g>
                        </g>
                        <g transform="matrix(4.16334e-17,0.257174,-0.675361,5.55112e-17,982.398,945.812)">
                            <path d="M242,889C219.923,889 202,906.251 202,927.5C202,948.749 219.923,966 242,966C230.962,959.583 222,944.541 222,927.5C222,910.459 230.962,895.417 242,889Z" style="fill:rgb(248,245,228);"/>
                        </g>
                    </g>
                </g>
                <g transform="matrix(1.26373,0,0,1.26373,-67.1336,-1037.19)">
                    <circle cx="356" cy="1042" r="50" style="fill:rgb(56,129,122);"/>
                    <clipPath id="_clip5">
                        <circle cx="356" cy="1042" r="50"/>
                    </clipPath>
                    <g clip-path="url(#_clip5)">
                        <g id="Forma-1" transform="matrix(0.129441,-0.0346836,0.0327994,0.122409,309.548,1005.62)">
                            <path d="M585.824,321.798C581.684,320.396 570.555,315.904 567.497,311.528C567.011,310.833 566.255,309.337 565.297,307.442C559.672,296.307 546.496,270.231 519.889,270.231C515.706,270.231 511.319,270.892 506.85,272.196C481.837,279.494 469.833,296.087 461.07,308.201C456.023,315.179 452.037,320.69 447.546,321.552C446.133,321.823 444.809,321.96 443.607,321.96C439.323,321.96 436.924,320.332 436.475,317.119C434.788,305.054 435.174,290.009 435.582,274.08C436.256,247.729 437.019,217.863 428.258,194.431C413.976,156.227 382.09,125.449 356.469,100.719C350.066,94.539 344.019,88.702 338.834,83.336C336.843,80.876 334.772,78.639 332.769,76.473C329.863,73.331 327.117,70.363 325.113,67.238C316.515,53.833 310.491,38.625 305.286,24.262C304.793,22.689 304.303,21.104 303.818,19.503C303.04,16.938 302.184,14.982 301.202,13.531C298.367,6.742 295.027,0.5 289.872,0.5C289.068,0.5 288.242,0.657 287.421,0.968C278.558,4.32 276.612,22.7 274.894,38.917C274.011,47.247 273.179,55.115 271.555,58.98C269.459,63.973 266.21,66.925 262.769,70.049C258.7,73.744 254.493,77.563 252.523,84.769C250.554,91.969 252.527,96.113 254.436,100.119C256.042,103.493 257.561,106.678 256.735,111.989C255.87,117.563 253.182,120.574 250.337,123.764C247.304,127.164 244.165,130.68 243.631,137.112C243.078,143.755 246.572,148.068 249.951,152.241C252.906,155.889 255.696,159.334 255.628,164.236C255.57,168.395 253.105,170.466 249.987,173.088C245.901,176.52 240.816,180.792 242.484,191.073C243.587,197.866 248.072,201.413 252.03,204.541C255.836,207.551 258.163,209.57 257.994,213.002C257.866,215.611 257.061,218.4 256.211,221.352C254.181,228.397 251.878,236.383 257.836,245.135C259.983,248.289 267.131,254.613 275.071,261.086C253.272,251.102 220.897,238.499 187.042,233.186C131.509,224.473 77.652,202.932 48.717,191.358C35.097,185.911 28.972,183.5 26.557,183.5C24.992,183.5 24.476,184.461 24.326,184.876C23.751,186.469 25.132,187.967 28.446,190.72L37.362,198.119C49.322,208.035 58.707,215.816 62.696,219.731C60.747,219.039 57.956,217.902 54.339,216.332C52.43,215.502 50.895,215.83 50.047,217.067C49.639,217.663 49.441,218.415 49.441,219.366C49.441,229.921 79.837,281.825 121.827,331.907C152.132,368.049 210.354,428.684 259.803,428.684C262.754,428.684 265.657,428.467 268.481,428.037C248.818,448.381 177.34,501.989 113.967,528.294C37.388,560.08 2.817,576.414 0.399,589.174C-0.15,592.073 0.853,594.784 3.382,597.227C6.75,600.48 9.892,601.995 13.273,601.995C15.659,601.995 17.849,601.232 19.965,600.494C22.133,599.74 24.374,598.959 26.91,598.959C29.743,598.959 32.686,599.95 35.903,601.988C43.933,607.072 53.577,612.5 66.447,612.5C79.855,612.5 94.65,606.634 111.676,594.567C114.866,592.308 117.759,591.299 121.062,591.299C122.926,591.299 124.753,591.609 126.686,591.936C128.792,592.294 130.971,592.664 133.381,592.664C138.862,592.664 144.078,590.624 149.79,586.245C191.942,553.935 237.908,547.887 286.577,541.481C343.985,533.926 403.348,526.114 467.187,477.016C521.519,435.232 532.241,399.352 539.338,375.608C540.085,373.108 540.788,370.751 541.498,368.551C548.607,346.517 552.775,341.369 557.98,339.579C561.434,338.391 569.98,334.938 577.523,331.894C582.829,329.751 587.414,327.899 588.684,327.463C590.556,326.819 590.777,325.672 590.744,325.044C590.706,324.402 590.624,322.902 585.824,321.798Z" style="fill:rgb(248,245,228);fill-rule:nonzero;"/>
                        </g>
                    </g>
                </g>
            </g>
        </g>
    </g>
</svg>
