<?xml version="1.0" encoding="UTF-8" standalone="no"?><!DOCTYPE svg PUBLIC "-//W3C//DTD SVG 1.1//EN" "http://www.w3.org/Graphics/SVG/1.1/DTD/svg11.dtd"><svg width="100%" height="100%" viewBox="0 0 200 197" version="1.1" xmlns="http://www.w3.org/2000/svg" xmlns:xlink="http://www.w3.org/1999/xlink" xml:space="preserve" style="fill-rule:evenodd;clip-rule:evenodd;stroke-linejoin:round;stroke-miterlimit:1.41421;"><g id="Photo-manquante"><g id="Jumelle"><path d="M200,79.475c0,-21.227 -17.234,-38.461 -38.462,-38.461c-21.227,0 -38.461,17.234 -38.461,38.461l0,49.123c0,10.614 8.617,19.231 19.231,19.231l38.461,0c10.614,0 19.231,-8.617 19.231,-19.231l0,-49.123Z" style="fill:#346473;"/><clipPath id="_clip1"><path d="M200,79.475c0,-21.227 -17.234,-38.461 -38.462,-38.461c-21.227,0 -38.461,17.234 -38.461,38.461l0,49.123c0,10.614 8.617,19.231 19.231,19.231l38.461,0c10.614,0 19.231,-8.617 19.231,-19.231l0,-49.123Z"/></clipPath><g clip-path="url(#_clip1)"><path d="M200,78.561c0,-10.234 -8.831,-37.547 -38.462,-37.547c-29.63,0 -38.461,27.29 -38.461,37.524c7.247,-21.443 26.072,-24.545 38.461,-24.545c12.39,0 30.183,1.679 38.462,24.568Z" style="fill:#29475f;"/></g><path d="M76.923,79.475c0,-21.227 -17.234,-38.461 -38.461,-38.461c-21.228,0 -38.462,17.234 -38.462,38.461l0,49.123c0,10.614 8.617,19.231 19.231,19.231l38.461,0c10.614,0 19.231,-8.617 19.231,-19.231l0,-49.123Z" style="fill:#346473;"/><clipPath id="_clip2"><path d="M76.923,79.475c0,-21.227 -17.234,-38.461 -38.461,-38.461c-21.228,0 -38.462,17.234 -38.462,38.461l0,49.123c0,10.614 8.617,19.231 19.231,19.231l38.461,0c10.614,0 19.231,-8.617 19.231,-19.231l0,-49.123Z"/></clipPath><g clip-path="url(#_clip2)"><path d="M76.923,78.561c0,-10.234 -8.831,-37.547 -38.461,-37.547c-29.631,0 -38.462,27.29 -38.462,37.524c7.247,-21.443 26.072,-24.545 38.462,-24.545c12.389,0 30.182,1.679 38.461,24.568Z" style="fill:#29475f;"/></g><g><path d="M137.139,102.968c0,0 -16.503,-8.547 -37.139,-8.547c-27.905,0 -37.139,8.547 -37.139,8.547l0,29.915c0,0 9.292,-8.547 37.091,-8.547c20.726,0 37.187,8.547 37.187,8.547l0,-29.915Z" style="fill:#346473;"/><clipPath id="_clip3"><path d="M137.139,102.968c0,0 -16.503,-8.547 -37.139,-8.547c-27.905,0 -37.139,8.547 -37.139,8.547l0,29.915c0,0 9.292,-8.547 37.091,-8.547c20.726,0 37.187,8.547 37.187,8.547l0,-29.915Z"/></clipPath><g clip-path="url(#_clip3)"><path d="M124.491,105.512c0,0 1.546,-4.967 0.189,-7.174c-4.107,-6.675 -13.767,-11.368 -25.019,-11.368c-10.635,0 -19.849,4.192 -24.294,10.289c-1.813,2.486 -0.995,8.253 -0.995,8.253c0,0 14.764,-4.172 25.289,-4.172c10.525,0 24.83,4.172 24.83,4.172Z" style="fill:#29475f;"/></g><path d="M127.849,116.558c0,0 -12.375,-5.983 -27.849,-5.983c-20.925,0 -27.849,5.983 -27.849,5.983l0,20.94c0,0 6.968,-5.983 27.813,-5.983c15.542,0 27.885,5.983 27.885,5.983l0,-20.94Z" style="fill:#75b350;"/></g><circle cx="38.462" cy="129.368" r="38.462" style="fill:#75b350;"/><circle cx="161.538" cy="129.368" r="38.462" style="fill:#75b350;"/><circle cx="38.462" cy="129.368" r="29.29" style="fill:#38817a;"/><clipPath id="_clip4"><circle cx="38.462" cy="129.368" r="29.29"/></clipPath><g clip-path="url(#_clip4)"><g id="Logo-3"><g><circle cx="38.462" cy="129.368" r="44.13" style="fill:#38817a;"/><circle cx="38.462" cy="129.368" r="18.913" style="fill:#f8f5e4;"/><circle cx="38.462" cy="129.368" r="6.304" style="fill:#346473;"/><ellipse cx="37.327" cy="126.342" rx="2.648" ry="2.017" style="fill:#f8f5e4;"/></g><path d="M50.029,106.079c-0.941,-3.515 -8.92,-4.436 -17.805,-2.056c-8.885,2.381 -15.334,7.168 -14.392,10.683c2.212,-2.476 8.12,-5.589 15.245,-7.498c7.126,-1.909 13.798,-2.168 16.952,-1.129Z" style="fill:#f8f5e4;"/></g></g><circle cx="161.538" cy="129.368" r="29.29" style="fill:#38817a;"/><clipPath id="_clip5"><circle cx="161.538" cy="129.368" r="29.29"/></clipPath><g clip-path="url(#_clip5)"><g><circle cx="161.538" cy="129.368" r="44.13" style="fill:#38817a;"/><circle cx="161.538" cy="129.368" r="18.913" style="fill:#f8f5e4;"/><circle cx="161.538" cy="129.368" r="6.304" style="fill:#346473;"/><ellipse cx="160.404" cy="126.342" rx="2.648" ry="2.017" style="fill:#f8f5e4;"/></g><path d="M181.618,113.963c0.942,-3.515 -5.507,-8.302 -14.392,-10.682c-8.885,-2.381 -16.864,-1.46 -17.806,2.055c3.154,-1.039 9.827,-0.78 16.952,1.129c7.126,1.909 13.034,5.022 15.246,7.498Z" style="fill:#f8f5e4;"/></g></g><path d="M122.222,19.43c0,-13.627 -7.225,-19.43 -24.289,-19.43c-9.959,0 -20.155,4.145 -20.155,4.145l0.83,11.965c0,0 9.129,-1.898 17.072,-1.898c7.943,0 10.077,2.965 10.077,6.997c0,4.388 -1.185,6.167 -9.958,13.164c-6.286,5.1 -8.537,8.065 -8.537,11.148c0,6.76 3.672,10.792 3.672,10.792l12.676,0l0,-3.676c0,-3.321 0.474,-5.574 8.89,-11.978c8.182,-6.167 9.722,-10.437 9.722,-21.229Zm-33.893,62.597l17.058,0l0,-19.073l-17.058,0l0,19.073Z" style="fill:#4c3232;fill-rule:nonzero;"/><text x="28px" y="192.031px" style="font-family:'Titillium-SemiboldUpright', 'Titillium';font-weight:600;font-style:italic;font-size:20px;fill:#4c3232;">Photo manquante</text></g></svg>