<?xml version="1.0" encoding="UTF-8" standalone="no"?>
<!DOCTYPE svg PUBLIC "-//W3C//DTD SVG 1.1//EN" "http://www.w3.org/Graphics/SVG/1.1/DTD/svg11.dtd">
<svg width="100%" height="100%" viewBox="0 0 293 232" version="1.1" xmlns="http://www.w3.org/2000/svg" xmlns:xlink="http://www.w3.org/1999/xlink" xml:space="preserve" style="fill-rule:evenodd;clip-rule:evenodd;stroke-linejoin:round;stroke-miterlimit:1.41421;">
    <g transform="matrix(1,0,0,1,-674.536,-492.657)">
        <g transform="matrix(0.763879,0,0,1,13.7498,0)">
            <g id="Observer" transform="matrix(1.58872,0,0,1.21359,10.6022,-10.2409)">
                <g transform="matrix(1.2472,0,0,1.2472,29.6374,-178.855)">
                    <rect x="416" y="498" width="80" height="110" style="fill:rgb(248,245,228);"/>
                </g>
                <g id="Jumelle" transform="matrix(0.152785,0,0,0.152785,560.162,475.096)">
                    <g transform="matrix(1.65945,0,0,2.05742,-805.41,-1884.05)">
                        <path d="M766,999.328C766,977.071 743.596,959 716,959C688.404,959 666,977.071 666,999.328L666,1050.84C666,1061.96 677.202,1071 691,1071L741,1071C754.798,1071 766,1061.96 766,1050.84L766,999.328Z" style="fill:rgb(39,50,57);"/>
                        <clipPath id="_clip1">
                            <path d="M766,999.328C766,977.071 743.596,959 716,959C688.404,959 666,977.071 666,999.328L666,1050.84C666,1061.96 677.202,1071 691,1071L741,1071C754.798,1071 766,1061.96 766,1050.84L766,999.328Z"/>
                        </clipPath>
                        <g clip-path="url(#_clip1)">
                            <g transform="matrix(3.84795e-17,0.506862,-0.492376,2.43175e-17,1087.25,939.088)">
                                <path d="M116.959,652.452C95.789,652.452 39.286,675.767 39.286,754C39.286,832.233 95.742,855.548 116.912,855.548C72.552,836.415 66.136,786.71 66.136,754C66.136,721.29 69.61,674.31 116.959,652.452Z" style="fill:rgb(41,71,95);"/>
                            </g>
                        </g>
                    </g>
                    <g transform="matrix(1.65945,0,0,2.05742,-1070.92,-1884.05)">
                        <path d="M766,999.328C766,977.071 743.596,959 716,959C688.404,959 666,977.071 666,999.328L666,1050.84C666,1061.96 677.202,1071 691,1071L741,1071C754.798,1071 766,1061.96 766,1050.84L766,999.328Z" style="fill:rgb(39,50,57);"/>
                        <clipPath id="_clip2">
                            <path d="M766,999.328C766,977.071 743.596,959 716,959C688.404,959 666,977.071 666,999.328L666,1050.84C666,1061.96 677.202,1071 691,1071L741,1071C754.798,1071 766,1061.96 766,1050.84L766,999.328Z"/>
                        </clipPath>
                        <g clip-path="url(#_clip2)">
                            <g transform="matrix(3.84795e-17,0.506862,-0.492376,2.43175e-17,1087.25,939.088)">
                                <path d="M116.959,652.452C95.789,652.452 39.286,675.767 39.286,754C39.286,832.233 95.742,855.548 116.912,855.548C72.552,836.415 66.136,786.71 66.136,754C66.136,721.29 69.61,674.31 116.959,652.452Z" style="fill:rgb(41,71,95);"/>
                            </g>
                        </g>
                    </g>
                    <g transform="matrix(1.64908,0,0,2.68739,-802.921,-1490.89)">
                        <g transform="matrix(1.21461,0,0,1.14351,-159.506,-559.623)">
                            <path d="M697,1047C697,1047 679.226,1041 657,1041C626.945,1041 617,1047 617,1047L617,1068C617,1068 627.008,1062 656.949,1062C679.271,1062 697,1068 697,1068L697,1047Z" style="fill:rgb(39,50,57);"/>
                            <clipPath id="_clip3">
                                <path d="M697,1047C697,1047 679.226,1041 657,1041C626.945,1041 617,1047 617,1047L617,1068C617,1068 627.008,1062 656.949,1062C679.271,1062 697,1068 697,1068L697,1047Z"/>
                            </clipPath>
                            <g clip-path="url(#_clip3)">
                                <g transform="matrix(-1.73802e-17,0.325409,-0.758876,-4.11106e-16,1360.49,970.037)">
                                    <path d="M242,892.26C242,892.26 231.285,890.065 226.523,891.992C212.123,897.82 202,911.531 202,927.5C202,942.594 211.044,955.67 224.195,961.979C229.559,964.552 242,963.392 242,963.392C242,963.392 233,942.437 233,927.5C233,912.563 242,892.26 242,892.26Z" style="fill:rgb(41,71,95);"/>
                                </g>
                            </g>
                        </g>
                        <g transform="matrix(0.910781,0,0,0.800457,40.1072,-189.537)">
                            <path d="M697,1047C697,1047 679.226,1041 657,1041C626.945,1041 617,1047 617,1047L617,1068C617,1068 627.008,1062 656.949,1062C679.271,1062 697,1068 697,1068L697,1047Z" style="fill:rgb(39,50,57);"/>
                        </g>
                    </g>
                    <g transform="matrix(1.65945,0,0,1.65945,-473.52,-1449.52)">
                        <circle cx="356" cy="1042" r="50" style="fill:rgb(52,100,115);"/>
                    </g>
                    <g id="Oeuil" transform="matrix(1.35417,0,0,1.35417,-37.6297,-99.034)">
                        <g transform="matrix(0.215168,0,0,0.215168,54.7667,93.0746)">
                            <circle cx="277" cy="867" r="175" style="fill:rgb(248,245,228);"/>
                        </g>
                        <g transform="matrix(0.0717227,0,0,0.0717227,94.5011,217.442)">
                            <circle cx="277" cy="867" r="175" style="fill:rgb(52,100,115);"/>
                        </g>
                        <g transform="matrix(0.0301235,0,0,0.0229513,103.765,253.702)">
                            <circle cx="277" cy="867" r="175" style="fill:rgb(248,245,228);"/>
                        </g>
                    </g>
                    <g transform="matrix(1.65945,0,0,1.65945,-208.008,-1449.52)">
                        <circle cx="356" cy="1042" r="50" style="fill:rgb(52,100,115);"/>
                    </g>
                    <g id="Oeuil1" transform="matrix(1.35417,0,0,1.35417,227.882,-99.034)">
                        <g transform="matrix(0.215168,0,0,0.215168,54.7667,93.0746)">
                            <circle cx="277" cy="867" r="175" style="fill:rgb(248,245,228);"/>
                        </g>
                        <g transform="matrix(0.0717227,0,0,0.0717227,94.5011,217.442)">
                            <circle cx="277" cy="867" r="175" style="fill:rgb(52,100,115);"/>
                        </g>
                        <g transform="matrix(0.0301235,0,0,0.0229513,103.765,253.702)">
                            <circle cx="277" cy="867" r="175" style="fill:rgb(248,245,228);"/>
                        </g>
                    </g>
                </g>
                <g id="ic_stay_primary_portrait_24px" transform="matrix(8.65523,0,0,8.65523,494.452,405.734)">
                    <path d="M17,1.01L7,1C5.9,1 5.01,1.9 5.01,3L5.01,21C5.01,22.1 5.9,23 7,23L17,23C18.1,23 19,22.1 19,21L19,3C19,1.9 18.1,1.01 17,1.01ZM17,19L7,19L7,5L17,5L17,19Z" style="fill:rgb(39,50,57);fill-rule:nonzero;"/>
                </g>
                <g transform="matrix(1.236,0,0,1.236,-162.508,-160.196)">
                    <g transform="matrix(4.15135e-17,0.677966,-0.518848,3.17703e-17,925.083,10.7156)">
                        <path d="M783.5,437.453L813,476L754,476L783.5,437.453Z" style="fill:rgb(39,50,57);"/>
                    </g>
                    <g transform="matrix(2.90594e-17,0.474576,-0.415078,2.54162e-17,875.688,170.072)">
                        <path d="M783.5,437.453L813,476L754,476L783.5,437.453Z" style="fill:rgb(52,100,115);"/>
                    </g>
                </g>
                <g transform="matrix(2.50176,0,0,2.50176,-1299.81,-679.216)">
                    <path d="M824.366,459.928C824.767,459.928 825.675,460.138 827.091,460.558C829.708,460.792 831.017,460.977 831.017,461.114C830.919,461.3 830.372,461.417 829.376,461.466L828.746,461.466C827.252,461.466 826.344,462.525 826.022,464.644L826.022,465.89C826.588,467.999 826.871,469.234 826.871,469.596C826.871,470.562 826.569,471.773 825.963,473.228C825.407,474.361 824.249,475.743 822.491,477.374C821.427,478.067 820.895,478.6 820.895,478.971C820.289,480.074 819.987,480.811 819.987,481.183C819.987,481.925 820.309,483.346 820.953,485.445C821.09,486.402 821.32,486.881 821.642,486.881L821.818,486.881C822.052,486.881 822.506,486.803 823.18,486.646L823.18,486.705C822.985,486.93 822.887,487.061 822.887,487.101C823.004,487.159 823.063,487.218 823.063,487.276C823.6,487.237 824.073,487.159 824.484,487.042C824.484,487.149 824.445,487.262 824.366,487.379C823.722,487.437 823.4,487.535 823.4,487.672L823.517,487.833L823.341,488.126C822.97,488.126 822.081,487.823 820.675,487.218L820.616,487.218L819.591,487.437C819.484,487.252 819.274,487.159 818.961,487.159C818.961,487.101 819.039,487.042 819.196,486.983L819.987,487.159C820.27,487.159 820.519,487.081 820.734,486.925C820.734,486.661 820.299,484.596 819.43,480.728L819.708,479.601C819.708,479.561 819.689,479.503 819.65,479.425C818.771,480.069 817.784,480.392 816.691,480.392C816.202,481.29 815.597,483.204 814.874,486.134C814.952,486.29 815.065,486.402 815.211,486.471C815.338,486.471 815.66,486.378 816.178,486.192L816.237,486.192C816.237,486.378 816.183,486.49 816.075,486.529L816.178,486.705C816.94,486.666 817.472,486.588 817.775,486.471L817.833,486.471L817.833,486.588C817.833,486.754 817.399,486.905 816.53,487.042L816.632,487.218C816.622,487.296 816.53,487.369 816.354,487.437C815.699,487.437 815.074,487.154 814.479,486.588C814.244,486.588 813.79,486.666 813.116,486.822C812.931,486.705 812.76,486.646 812.604,486.646L812.604,486.529C812.701,486.529 812.853,486.549 813.058,486.588C813.839,486.471 814.313,486.3 814.479,486.075C815.465,483.155 815.958,481.3 815.958,480.509C815.958,480.245 815.846,480.113 815.621,480.113C813.932,480.807 812.716,481.925 811.974,483.468C811.915,483.936 810.724,485.47 808.4,488.067C807.423,488.722 806.813,489.195 806.569,489.488C805.524,490.133 804.484,490.455 803.448,490.455C803.38,490.455 803.268,490.416 803.112,490.338C802.389,489.879 802.028,489.234 802.028,488.404C802.067,488.297 802.106,488.243 802.145,488.243C802.223,487.696 802.657,486.935 803.448,485.958C804.415,484.581 805.646,483.277 807.14,482.047C808.165,481.158 809.113,479.718 809.982,477.726C810.529,476.319 812.067,474.288 814.596,471.632C816.364,469.913 817.877,468.683 819.137,467.94C821.071,466.983 822.037,466.168 822.037,465.494C822.037,465.26 821.964,464.391 821.818,462.887C821.827,462.369 822.013,461.705 822.374,460.894C823.019,460.25 823.683,459.928 824.366,459.928Z" style="fill:rgb(76,50,50);fill-rule:nonzero;"/>
                </g>
            </g>
        </g>
    </g>
</svg>
