<?xml version="1.0" encoding="UTF-8" standalone="no"?>
<!DOCTYPE svg PUBLIC "-//W3C//DTD SVG 1.1//EN" "http://www.w3.org/Graphics/SVG/1.1/DTD/svg11.dtd">
<svg width="100%" height="100%" viewBox="0 0 90 90" version="1.1" xmlns="http://www.w3.org/2000/svg" xmlns:xlink="http://www.w3.org/1999/xlink" xml:space="preserve" style="fill-rule:evenodd;clip-rule:evenodd;stroke-linejoin:round;stroke-miterlimit:1.41421;">
    <g transform="matrix(1,0,0,1,-2563.92,-8.11635)">
        <g transform="matrix(0.99375,0,0,1.38889,1442.92,1.13687e-13)">
            <g id="No-avatar" transform="matrix(0.473548,0,0,0.338824,1063,-155.902)">
                <circle cx="233" cy="573" r="85" style="fill:none;"/>
                <clipPath id="_clip1">
                    <circle cx="233" cy="573" r="85"/>
                </clipPath>
                <g clip-path="url(#_clip1)">
                    <g transform="matrix(0.714286,0,0,0.988372,125.857,464.279)">
                        <rect x="31" y="24" width="238" height="172" style="fill:rgb(248,245,228);"/>
                    </g>
                    <g id="Nid" transform="matrix(4.00133,0,0,4.00133,168.838,569.155)">
                        <path d="M28.116,12.693C27.569,12.953 26.94,13.218 26.251,13.495C25.563,13.772 24.802,14.029 23.996,14.287C23.188,14.544 22.327,14.772 21.429,14.971C20.531,15.173 19.597,15.343 18.643,15.472C17.691,15.605 16.707,15.689 15.743,15.731C14.754,15.771 13.783,15.775 12.818,15.737C11.856,15.701 10.912,15.623 10.003,15.506C9.094,15.392 8.222,15.235 7.402,15.054C6.582,14.868 5.819,14.643 5.122,14.411C4.425,14.172 3.799,13.914 3.253,13.662C2.709,13.405 2.246,13.154 1.871,12.931C1.125,12.484 0.741,12.146 0.741,12.146C0.741,12.146 1.043,12.564 1.725,13.143C2.065,13.434 2.496,13.762 3.022,14.097C3.542,14.436 4.161,14.775 4.856,15.095C5.549,15.42 6.328,15.712 7.165,15.97C8.002,16.234 8.903,16.447 9.844,16.607C10.785,16.769 11.765,16.878 12.764,16.936C13.759,16.985 14.784,16.989 15.786,16.936C16.815,16.889 17.817,16.774 18.807,16.614C19.794,16.45 20.757,16.237 21.674,15.98C22.591,15.724 23.461,15.42 24.273,15.108C25.085,14.794 25.831,14.439 26.514,14.099C27.193,13.759 27.793,13.4 28.318,13.076C28.842,12.754 29.28,12.439 29.637,12.176C30.349,11.646 30.711,11.293 30.711,11.293C30.711,11.293 30.289,11.569 29.52,11.983C29.139,12.196 28.663,12.432 28.116,12.693ZM1.624,11.533C2.314,12.144 3.139,12.613 4.01,12.996C4.884,13.384 5.814,13.673 6.762,13.922C7.711,14.175 8.691,14.357 9.675,14.493C10.659,14.62 11.648,14.705 12.62,14.731C13.594,14.761 14.55,14.74 15.472,14.687C17.318,14.581 19.021,14.32 20.461,14.018C21.903,13.716 23.079,13.369 23.892,13.1C24.298,12.969 24.615,12.845 24.827,12.764C25.04,12.681 25.153,12.632 25.153,12.632C25.153,12.632 24.67,12.706 23.827,12.817C22.982,12.923 21.78,13.069 20.342,13.183C18.902,13.297 17.221,13.395 15.432,13.393C14.536,13.393 13.613,13.368 12.677,13.317C11.743,13.255 10.796,13.173 9.858,13.043C8.918,12.924 7.986,12.755 7.08,12.547C6.852,12.5 6.629,12.44 6.406,12.382L6.072,12.297L5.912,12.257L5.743,12.209C5.511,12.145 5.309,12.08 5.099,12.012C4.888,11.944 4.68,11.873 4.475,11.798C3.665,11.493 2.907,11.133 2.293,10.678C1.674,10.227 1.212,9.677 0.988,9.073C0.761,8.471 0.766,7.829 0.882,7.274C1.002,6.72 1.196,6.241 1.389,5.864C1.582,5.487 1.758,5.197 1.888,5.007C2.018,4.815 2.093,4.717 2.093,4.717C2.093,4.717 1.995,4.793 1.827,4.953C1.661,5.114 1.415,5.355 1.15,5.708C0.887,6.06 0.582,6.514 0.361,7.119C0.14,7.713 -0.003,8.49 0.202,9.318C0.396,10.146 0.935,10.932 1.624,11.533ZM2.131,7.781C2.231,8.499 2.538,9.124 2.899,9.549C2.989,9.66 3.08,9.757 3.173,9.845C2.696,9.599 2.379,9.302 2.191,9.073C2.1,8.954 2.034,8.859 1.996,8.79C1.955,8.721 1.934,8.687 1.934,8.687C1.934,8.687 1.945,8.727 1.968,8.801C1.988,8.88 2.031,8.992 2.096,9.133C2.228,9.416 2.503,9.81 2.967,10.179C3.429,10.553 4.068,10.883 4.82,11.174C5.578,11.449 6.446,11.701 7.399,11.891C8.354,12.09 9.376,12.273 10.471,12.435C11.602,12.585 12.768,12.66 13.982,12.693C15.195,12.724 16.446,12.717 17.719,12.66C18.988,12.609 20.282,12.493 21.572,12.325C22.859,12.149 24.153,11.935 25.405,11.57C26.031,11.387 26.65,11.177 27.251,10.913C27.853,10.648 28.436,10.338 28.973,9.913C29.24,9.701 29.489,9.454 29.703,9.17C29.803,9.05 29.94,8.824 29.993,8.719C30.086,8.555 30.158,8.373 30.209,8.184C30.315,7.804 30.307,7.384 30.205,7.021C30.102,6.659 29.93,6.351 29.732,6.089C29.338,5.568 28.871,5.213 28.407,4.911C27.941,4.613 27.472,4.379 27.017,4.179C26.105,3.779 25.23,3.55 24.456,3.388C23.678,3.224 22.986,3.164 22.421,3.146C21.856,3.127 21.407,3.172 21.111,3.215C20.811,3.261 20.658,3.303 20.658,3.303C20.658,3.303 20.819,3.288 21.117,3.291C21.414,3.291 21.85,3.326 22.398,3.415C22.945,3.5 23.598,3.663 24.329,3.895C25.057,4.128 25.862,4.461 26.683,4.895C27.093,5.115 27.506,5.37 27.895,5.669C28.279,5.966 28.647,6.314 28.906,6.7C29.034,6.892 29.126,7.095 29.166,7.291C29.205,7.485 29.196,7.672 29.131,7.855C29.103,7.947 29.06,8.04 28.999,8.131L28.94,8.227C28.92,8.252 28.91,8.269 28.892,8.29L28.849,8.351L28.789,8.418C28.636,8.601 28.442,8.768 28.232,8.925C27.81,9.242 27.299,9.498 26.761,9.71C26.681,9.742 26.597,9.773 26.514,9.804C26.661,9.674 26.838,9.505 27.015,9.264C27.14,9.09 27.264,8.874 27.338,8.605C27.413,8.333 27.401,7.997 27.277,7.686C27.021,7.053 26.445,6.59 25.816,6.224C25.181,5.854 24.459,5.552 23.678,5.304C23.486,5.241 23.283,5.18 23.084,5.122C22.877,5.069 22.667,5.01 22.453,4.961C22.029,4.861 21.596,4.795 21.154,4.728C20.272,4.606 19.362,4.535 18.436,4.495C17.509,4.457 16.57,4.454 15.63,4.494C14.691,4.53 13.75,4.599 12.826,4.726C12.367,4.79 11.911,4.861 11.449,4.959C11.216,4.999 11.008,5.056 10.79,5.11C10.573,5.165 10.355,5.217 10.141,5.269C9.261,5.51 8.41,5.856 7.724,6.413C7.382,6.69 7.081,7.019 6.866,7.397C6.648,7.771 6.525,8.203 6.534,8.62C6.543,9.039 6.684,9.423 6.883,9.722C7.081,10.026 7.331,10.253 7.579,10.426C8.057,10.745 8.527,10.89 8.918,10.977C8.448,10.934 7.992,10.893 7.559,10.844C7.437,10.829 7.319,10.816 7.198,10.801C7.178,10.794 7.157,10.789 7.134,10.779C7.013,10.739 6.843,10.652 6.658,10.51C6.475,10.361 6.271,10.159 6.085,9.896C5.903,9.632 5.725,9.314 5.613,8.949C5.501,8.585 5.448,8.182 5.495,7.779C5.549,7.378 5.698,6.981 5.957,6.62C6.019,6.528 6.093,6.442 6.166,6.354C6.202,6.31 6.245,6.27 6.285,6.226L6.344,6.163L6.351,6.155L6.358,6.149L6.396,6.114L6.548,5.976C6.597,5.935 6.635,5.914 6.679,5.878C6.754,5.819 6.864,5.751 6.964,5.686C7.377,5.423 7.863,5.216 8.36,5.028C8.861,4.848 9.378,4.689 9.896,4.556C10.415,4.419 10.934,4.302 11.439,4.198C11.945,4.091 12.438,4.003 12.907,3.919C13.376,3.839 13.821,3.757 14.235,3.699C14.648,3.642 15.027,3.574 15.366,3.532C15.703,3.49 15.998,3.442 16.242,3.418C16.485,3.394 16.679,3.364 16.809,3.357C16.941,3.348 17.011,3.342 17.011,3.342C17.011,3.342 16.738,3.26 16.243,3.191C15.996,3.16 15.697,3.119 15.351,3.095C15.006,3.072 14.617,3.039 14.192,3.037C13.766,3.033 13.303,3.026 12.816,3.052C12.328,3.072 11.813,3.11 11.28,3.167C10.748,3.229 10.199,3.313 9.642,3.429C9.09,3.546 8.525,3.69 7.967,3.887C7.41,4.083 6.857,4.323 6.336,4.662C6.206,4.751 6.08,4.83 5.946,4.945C5.884,4.999 5.807,5.056 5.757,5.105L5.609,5.249L5.573,5.283L5.535,5.322L5.515,5.345L5.438,5.433C5.389,5.494 5.335,5.549 5.29,5.612C5.196,5.738 5.106,5.864 5.028,5.999C4.7,6.529 4.529,7.154 4.533,7.734C4.533,8.024 4.578,8.305 4.648,8.561C4.714,8.818 4.812,9.052 4.928,9.26C5.157,9.68 5.432,10.013 5.719,10.255C5.963,10.468 6.209,10.613 6.432,10.706C5.928,10.64 5.453,10.565 5.023,10.466C4.664,10.391 4.335,10.302 4.034,10.201C3.843,9.978 3.593,9.646 3.387,9.219C3.183,8.785 3.029,8.265 3.008,7.692C2.995,7.405 3.012,7.108 3.058,6.806C3.069,6.732 3.081,6.657 3.096,6.579L3.117,6.481L3.148,6.355L3.178,6.23L3.209,6.125C3.23,6.06 3.247,5.993 3.276,5.92C3.381,5.638 3.515,5.363 3.679,5.109C3.84,4.854 4.028,4.618 4.229,4.399C4.631,3.966 5.08,3.609 5.489,3.33C5.695,3.195 5.885,3.064 6.062,2.966C6.24,2.863 6.394,2.77 6.526,2.699C6.786,2.557 6.944,2.482 6.944,2.482C6.944,2.482 6.769,2.482 6.47,2.528C6.322,2.555 6.138,2.585 5.934,2.641C5.73,2.696 5.497,2.763 5.253,2.863C5.009,2.964 4.744,3.077 4.477,3.232C4.209,3.385 3.938,3.572 3.675,3.794C3.414,4.016 3.162,4.279 2.941,4.579C2.721,4.879 2.531,5.216 2.393,5.573C2.357,5.66 2.326,5.76 2.296,5.857L2.252,5.999L2.222,6.124L2.192,6.25L2.176,6.333L2.163,6.403C2.146,6.494 2.133,6.587 2.121,6.678C2.079,7.049 2.079,7.425 2.131,7.781ZM31.949,6.958C31.897,6.423 31.699,5.893 31.413,5.427C31.125,4.959 30.755,4.547 30.342,4.189C29.51,3.473 28.53,2.943 27.508,2.515C26.484,2.085 25.401,1.787 24.312,1.554C23.22,1.325 22.12,1.167 21.031,1.095C20.487,1.057 19.944,1.031 19.411,1.026C18.884,1.025 18.36,1.024 17.848,1.023C16.822,1.039 15.828,1.074 14.881,1.129C13.938,1.199 13.044,1.295 12.224,1.438C11.407,1.586 10.663,1.762 10.021,1.975C9.381,2.189 8.835,2.4 8.395,2.596C7.953,2.786 7.612,2.951 7.382,3.064C7.152,3.179 7.029,3.238 7.029,3.238C7.029,3.238 7.553,3.084 8.471,2.813C8.932,2.685 9.488,2.536 10.132,2.398C10.776,2.267 11.506,2.145 12.311,2.078C13.113,2.002 13.989,1.959 14.917,1.949C15.847,1.929 16.829,1.936 17.846,1.956C18.355,1.963 18.872,1.971 19.397,1.977C19.913,1.99 20.437,2.016 20.963,2.058C22.014,2.146 23.08,2.272 24.128,2.487C25.178,2.696 26.205,2.991 27.181,3.361C28.153,3.737 29.071,4.209 29.824,4.824C30.575,5.428 31.145,6.201 31.259,7.043C31.384,7.884 31.093,8.711 30.632,9.339C30.172,9.976 29.604,10.465 29.075,10.851C28.54,11.234 28.042,11.529 27.619,11.752C27.197,11.975 26.858,12.135 26.623,12.238C26.389,12.343 26.261,12.39 26.261,12.39C26.261,12.39 26.395,12.361 26.642,12.286C26.887,12.213 27.249,12.101 27.698,11.922C28.144,11.741 28.685,11.506 29.269,11.154C29.848,10.799 30.495,10.352 31.054,9.675C31.331,9.337 31.585,8.939 31.755,8.476C31.926,8.017 32.006,7.493 31.949,6.958ZM9.944,11.038C9.731,10.997 9.418,10.933 9.04,10.799C8.666,10.667 8.214,10.467 7.811,10.113C7.611,9.937 7.423,9.723 7.293,9.47C7.164,9.218 7.095,8.926 7.119,8.63C7.155,8.034 7.58,7.454 8.182,7.051C8.786,6.642 9.542,6.363 10.351,6.201C10.454,6.182 10.554,6.163 10.659,6.146C10.768,6.126 10.88,6.109 10.991,6.089C11.207,6.058 11.433,6.009 11.641,5.986C12.061,5.924 12.505,5.882 12.95,5.838C13.842,5.761 14.757,5.72 15.671,5.69C16.587,5.665 17.503,5.659 18.405,5.679C19.305,5.698 20.191,5.731 21.039,5.8C21.253,5.821 21.463,5.839 21.67,5.86C21.876,5.884 22.078,5.91 22.278,5.935C22.478,5.961 22.673,5.998 22.865,6.031C23.064,6.072 23.255,6.115 23.443,6.161C24.201,6.352 24.908,6.557 25.514,6.83C26.115,7.105 26.636,7.442 26.873,7.868C26.989,8.081 27.026,8.312 27.006,8.528C26.985,8.751 26.908,8.956 26.819,9.132C26.646,9.463 26.454,9.706 26.313,9.874C25.909,10.015 25.49,10.138 25.061,10.244C23.879,10.534 22.647,10.755 21.401,10.902C20.15,11.052 18.892,11.135 17.651,11.205C16.41,11.263 15.186,11.289 14.003,11.28C12.822,11.266 11.671,11.244 10.62,11.136C10.467,11.12 10.316,11.107 10.166,11.09C10.235,11.09 10.272,11.089 10.272,11.089C10.272,11.089 10.158,11.078 9.944,11.038Z" style="fill:rgb(76,50,50);"/>
                    </g>
                    <g id="Oeuf" transform="matrix(0.34634,0,0,0.181292,-1045.47,-491.08)">
                        <path d="M3691.37,5516C3691.37,5516 3584,5516 3584,5857.88C3584,5971.09 3632.11,6063 3691.37,6063C3750.63,6063 3798.75,5971.09 3798.75,5857.88C3798.75,5516 3691.37,5516 3691.37,5516Z" style="fill:rgb(117,179,80);"/>
                    </g>
                </g>
                <path d="M233.617,477.377L234.233,477.383L234.848,477.393L235.462,477.406L236.075,477.424L236.687,477.445L237.299,477.47L237.91,477.499L238.52,477.532L239.129,477.569L239.736,477.609L240.343,477.654L240.949,477.702L241.554,477.754L242.158,477.809L242.761,477.869L243.362,477.932L243.963,477.999L244.562,478.069L245.161,478.143L245.758,478.221L246.354,478.303L246.951,478.388L247.544,478.477L248.136,478.57L248.729,478.666L249.319,478.766L249.909,478.869L250.496,478.977L251.084,479.087L251.67,479.202L252.254,479.319L252.837,479.441L253.418,479.565L254,479.694L254.579,479.826L255.157,479.961L255.733,480.1L256.309,480.243L256.883,480.389L257.454,480.538L258.026,480.691L258.595,480.847L259.164,481.007L259.732,481.17L260.296,481.336L260.859,481.506L261.422,481.679L261.985,481.856L262.544,482.036L263.102,482.219L263.658,482.406L264.213,482.596L264.766,482.789L265.318,482.985L265.868,483.185L266.419,483.388L266.965,483.594L267.51,483.804L268.055,484.017L268.597,484.232L269.138,484.452L269.676,484.674L270.215,484.9L270.751,485.129L271.282,485.359L271.815,485.594L272.348,485.834L272.875,486.074L273.401,486.318L273.929,486.566L274.453,486.817L274.973,487.07L275.493,487.326L276.012,487.586L276.528,487.849L277.045,488.116L277.557,488.384L278.066,488.655L278.577,488.93L279.083,489.208L279.588,489.488L280.093,489.773L280.594,490.059L281.093,490.348L281.59,490.64L282.087,490.936L282.582,491.235L283.072,491.535L283.563,491.839L284.05,492.145L284.534,492.454L285.022,492.768L285.504,493.084L285.982,493.401L286.46,493.722L286.936,494.046L287.408,494.371L287.88,494.7L288.352,495.034L288.819,495.368L289.282,495.704L289.745,496.044L290.209,496.388L290.667,496.733L291.123,497.081L291.58,497.434L292.031,497.786L292.481,498.142L292.928,498.5L293.373,498.86L293.818,499.226L294.261,499.593L294.699,499.961L295.134,500.332L295.573,500.709L296.003,501.085L296.432,501.462L296.863,501.848L297.286,502.23L297.707,502.615L298.131,503.007L298.55,503.4L298.964,503.792L299.378,504.189L299.789,504.588L300.201,504.992L300.607,505.396L301.008,505.8L301.412,506.211L301.811,506.622L302.207,507.035L302.6,507.45L302.992,507.868L303.383,508.291L303.772,508.716L304.155,509.14L304.536,509.566L304.916,509.998L305.292,510.429L305.667,510.864L306.04,511.303L306.407,511.74L306.772,512.179L307.137,512.623L307.502,513.073L307.86,513.522L308.214,513.969L308.565,514.419L308.919,514.877L309.267,515.334L309.61,515.789L309.956,516.254L310.295,516.717L310.632,517.182L310.969,517.652L311.3,518.121L311.626,518.588L311.955,519.064L312.28,519.543L312.597,520.015L312.917,520.497L313.233,520.982L313.545,521.464L313.853,521.948L314.161,522.437L314.466,522.929L314.765,523.418L315.064,523.913L315.36,524.41L315.653,524.909L315.94,525.405L316.228,525.907L316.511,526.411L316.792,526.917L317.07,527.424L317.343,527.929L317.617,528.444L317.885,528.957L318.151,529.471L318.415,529.991L318.672,530.504L318.929,531.023L319.184,531.548L319.436,532.075L319.682,532.599L319.926,533.124L320.166,533.651L320.403,534.18L320.641,534.719L320.872,535.25L321.1,535.783L321.328,536.327L321.548,536.863L321.767,537.401L321.983,537.944L322.196,538.489L322.406,539.036L322.613,539.583L322.816,540.133L323.015,540.683L323.212,541.235L323.403,541.784L323.593,542.339L323.781,542.9L323.964,543.457L324.144,544.016L324.32,544.576L324.493,545.137L324.664,545.704L324.832,546.273L324.994,546.838L325.153,547.405L325.308,547.972L325.461,548.541L325.612,549.121L325.757,549.692L325.899,550.264L326.04,550.847L326.174,551.422L326.305,551.997L326.435,552.584L326.56,553.167L326.68,553.746L326.798,554.331L326.913,554.917L327.022,555.499L327.13,556.087L327.234,556.681L327.334,557.271L327.431,557.867L327.523,558.46L327.611,559.047L327.696,559.641L327.779,560.241L327.857,560.842L327.931,561.439L328.001,562.037L328.068,562.635L328.131,563.239L328.191,563.845L328.246,564.446L328.298,565.048L328.346,565.655L328.391,566.264L328.431,566.873L328.468,567.483L328.501,568.089L328.53,568.7L328.555,569.313L328.576,569.925L328.594,570.539L328.608,571.153L328.617,571.768L328.623,572.384L328.625,573L328.623,573.616L328.617,574.232L328.608,574.847L328.594,575.461L328.576,576.075L328.555,576.687L328.53,577.3L328.501,577.911L328.468,578.517L328.431,579.127L328.391,579.736L328.346,580.345L328.298,580.952L328.246,581.554L328.191,582.155L328.131,582.76L328.068,583.365L328.001,583.963L327.931,584.561L327.857,585.158L327.779,585.759L327.696,586.359L327.611,586.953L327.523,587.54L327.431,588.133L327.334,588.729L327.234,589.319L327.13,589.913L327.022,590.501L326.913,591.083L326.798,591.669L326.68,592.254L326.56,592.833L326.435,593.416L326.305,594.003L326.174,594.578L326.04,595.153L325.899,595.736L325.757,596.308L325.612,596.879L325.461,597.459L325.308,598.028L325.153,598.595L324.994,599.162L324.832,599.727L324.664,600.296L324.493,600.863L324.32,601.424L324.144,601.984L323.964,602.543L323.781,603.1L323.593,603.661L323.403,604.216L323.212,604.765L323.015,605.317L322.816,605.867L322.613,606.417L322.406,606.964L322.196,607.511L321.983,608.056L321.767,608.599L321.548,609.137L321.328,609.673L321.1,610.217L320.872,610.75L320.641,611.281L320.403,611.82L320.166,612.349L319.926,612.876L319.682,613.401L319.436,613.925L319.184,614.452L318.929,614.977L318.672,615.496L318.415,616.009L318.151,616.529L317.885,617.043L317.617,617.556L317.343,618.071L317.07,618.576L316.793,619.083L316.511,619.589L316.228,620.093L315.94,620.595L315.653,621.091L315.36,621.59L315.064,622.087L314.765,622.582L314.466,623.071L314.161,623.563L313.853,624.052L313.545,624.536L313.233,625.018L312.917,625.502L312.597,625.985L312.28,626.457L311.955,626.936L311.626,627.412L311.3,627.879L310.969,628.348L310.632,628.818L310.295,629.283L309.956,629.746L309.61,630.211L309.267,630.666L308.919,631.123L308.565,631.581L308.214,632.031L307.86,632.478L307.502,632.927L307.137,633.377L306.772,633.821L306.407,634.26L306.04,634.697L305.667,635.136L305.292,635.571L304.916,636.002L304.536,636.434L304.155,636.86L303.772,637.284L303.383,637.709L302.992,638.132L302.6,638.55L302.207,638.965L301.811,639.378L301.412,639.789L301.008,640.2L300.607,640.604L300.201,641.008L299.789,641.412L299.378,641.811L298.964,642.208L298.55,642.6L298.132,642.993L297.707,643.385L297.286,643.77L296.863,644.152L296.432,644.538L296.003,644.915L295.573,645.291L295.134,645.668L294.699,646.039L294.261,646.407L293.818,646.774L293.373,647.14L292.928,647.5L292.481,647.858L292.031,648.214L291.58,648.566L291.123,648.919L290.667,649.267L290.209,649.612L289.745,649.956L289.282,650.296L288.819,650.632L288.352,650.966L287.88,651.3L287.408,651.629L286.936,651.954L286.46,652.278L285.982,652.599L285.504,652.916L285.022,653.232L284.534,653.546L284.05,653.855L283.563,654.161L283.072,654.465L282.582,654.765L282.087,655.064L281.589,655.36L281.093,655.652L280.594,655.941L280.093,656.227L279.588,656.512L279.083,656.792L278.577,657.07L278.066,657.345L277.557,657.616L277.045,657.884L276.528,658.151L276.012,658.414L275.493,658.674L274.973,658.93L274.453,659.183L273.929,659.434L273.401,659.682L272.876,659.926L272.348,660.166L271.815,660.406L271.282,660.641L270.751,660.871L270.215,661.1L269.676,661.326L269.138,661.548L268.597,661.768L268.055,661.983L267.51,662.197L266.965,662.406L266.419,662.612L265.868,662.815L265.318,663.015L264.766,663.211L264.213,663.404L263.658,663.594L263.102,663.781L262.544,663.964L261.985,664.144L261.422,664.321L260.859,664.494L260.296,664.664L259.732,664.83L259.164,664.993L258.595,665.153L258.026,665.309L257.454,665.462L256.883,665.611L256.309,665.757L255.732,665.9L255.157,666.039L254.579,666.174L254,666.306L253.418,666.435L252.837,666.559L252.254,666.681L251.67,666.798L251.084,666.913L250.497,667.023L249.909,667.131L249.319,667.234L248.729,667.334L248.137,667.43L247.544,667.523L246.95,667.612L246.354,667.697L245.758,667.779L245.161,667.857L244.562,667.931L243.963,668.001L243.362,668.068L242.761,668.131L242.157,668.191L241.554,668.246L240.949,668.298L240.343,668.346L239.736,668.391L239.129,668.431L238.52,668.468L237.91,668.501L237.299,668.53L236.688,668.555L236.075,668.576L235.462,668.594L234.848,668.607L234.233,668.617L233.617,668.623L233,668.625L232.383,668.623L231.767,668.617L231.152,668.607L230.538,668.594L229.925,668.576L229.313,668.555L228.701,668.53L228.09,668.501L227.48,668.468L226.871,668.431L226.264,668.391L225.657,668.346L225.051,668.298L224.446,668.246L223.843,668.191L223.239,668.131L222.638,668.068L222.037,668.001L221.438,667.931L220.839,667.857L220.242,667.779L219.646,667.697L219.05,667.612L218.456,667.523L217.864,667.43L217.271,667.334L216.681,667.234L216.091,667.131L215.504,667.023L214.916,666.913L214.33,666.798L213.746,666.681L213.163,666.559L212.582,666.435L212,666.306L211.421,666.174L210.843,666.039L210.268,665.9L209.691,665.757L209.117,665.611L208.546,665.462L207.975,665.309L207.405,665.153L206.835,664.993L206.268,664.83L205.704,664.664L205.141,664.494L204.578,664.321L204.015,664.144L203.456,663.964L202.898,663.781L202.342,663.594L201.787,663.404L201.234,663.211L200.682,663.015L200.132,662.815L199.581,662.612L199.035,662.406L198.49,662.197L197.945,661.983L197.403,661.768L196.862,661.548L196.324,661.326L195.787,661.101L195.25,660.872L194.716,660.64L194.183,660.405L193.652,660.166L193.124,659.926L192.599,659.682L192.071,659.434L191.547,659.183L191.027,658.93L190.507,658.674L189.989,658.414L189.472,658.151L188.955,657.884L188.443,657.616L187.934,657.345L187.423,657.07L186.917,656.792L186.412,656.512L185.907,656.227L185.406,655.941L184.907,655.652L184.411,655.36L183.913,655.064L183.418,654.765L182.928,654.465L182.439,654.162L181.95,653.855L181.463,653.545L180.979,653.232L180.496,652.916L180.018,652.599L179.54,652.278L179.064,651.954L178.592,651.629L178.12,651.3L177.648,650.966L177.181,650.632L176.718,650.296L176.255,649.956L175.791,649.612L175.333,649.267L174.877,648.919L174.42,648.566L173.969,648.214L173.522,647.86L173.072,647.5L172.624,647.137L172.182,646.774L171.739,646.407L171.301,646.039L170.866,645.668L170.43,645.293L169.996,644.915L169.566,644.535L169.137,644.152L168.714,643.77L168.293,643.385L167.869,642.993L167.45,642.6L167.036,642.208L166.623,641.811L166.211,641.412L165.799,641.008L165.393,640.604L164.992,640.2L164.591,639.792L164.189,639.378L163.79,638.962L163.4,638.55L163.008,638.132L162.617,637.709L162.228,637.284L161.845,636.86L161.464,636.434L161.084,636.002L160.708,635.571L160.333,635.136L159.96,634.697L159.593,634.26L159.228,633.821L158.863,633.377L158.498,632.927L158.14,632.478L157.786,632.031L157.435,631.581L157.081,631.123L156.733,630.666L156.39,630.211L156.044,629.746L155.705,629.283L155.368,628.818L155.031,628.348L154.7,627.879L154.374,627.412L154.045,626.936L153.72,626.457L153.403,625.985L153.083,625.502L152.767,625.018L152.455,624.536L152.147,624.052L151.839,623.563L151.534,623.071L151.235,622.582L150.936,622.087L150.64,621.59L150.349,621.095L150.059,620.595L149.77,620.089L149.489,619.589L149.208,619.083L148.93,618.576L148.657,618.071L148.383,617.556L148.115,617.043L147.849,616.529L147.585,616.009L147.328,615.496L147.071,614.977L146.816,614.452L146.564,613.925L146.318,613.401L146.074,612.876L145.834,612.349L145.597,611.82L145.359,611.281L145.128,610.75L144.9,610.217L144.672,609.673L144.452,609.137L144.233,608.599L144.017,608.056L143.804,607.511L143.594,606.964L143.387,606.417L143.184,605.867L142.986,605.321L142.789,604.769L142.595,604.211L142.405,603.656L142.219,603.1L142.036,602.543L141.856,601.984L141.68,601.424L141.507,600.863L141.336,600.296L141.169,599.727L141.006,599.162L140.849,598.6L140.691,598.028L140.538,597.454L140.389,596.884L140.243,596.308L140.1,595.731L139.96,595.153L139.826,594.578L139.695,594.003L139.566,593.421L139.44,592.833L139.319,592.249L139.202,591.669L139.088,591.088L138.977,590.501L138.869,589.908L138.766,589.319L138.666,588.729L138.57,588.138L138.476,587.54L138.388,586.947L138.304,586.359L138.221,585.759L138.143,585.158L138.069,584.561L137.999,583.963L137.932,583.365L137.869,582.76L137.809,582.155L137.754,581.554L137.702,580.952L137.654,580.345L137.609,579.736L137.569,579.127L137.532,578.517L137.499,577.911L137.47,577.3L137.445,576.687L137.424,576.075L137.406,575.461L137.393,574.847L137.383,574.232L137.377,573.621L137.375,573L137.377,572.379L137.383,571.768L137.393,571.153L137.406,570.539L137.424,569.925L137.445,569.313L137.47,568.7L137.499,568.089L137.532,567.483L137.569,566.873L137.609,566.264L137.654,565.655L137.702,565.048L137.754,564.446L137.809,563.845L137.869,563.239L137.932,562.635L137.999,562.037L138.069,561.439L138.143,560.842L138.221,560.241L138.304,559.641L138.388,559.053L138.476,558.46L138.57,557.862L138.666,557.271L138.766,556.681L138.869,556.092L138.977,555.499L139.088,554.912L139.202,554.331L139.319,553.751L139.44,553.167L139.566,552.579L139.695,551.997L139.826,551.422L139.96,550.847L140.1,550.269L140.243,549.692L140.389,549.116L140.538,548.546L140.691,547.972L140.849,547.4L141.006,546.838L141.169,546.273L141.336,545.704L141.507,545.137L141.68,544.576L141.856,544.016L142.036,543.457L142.219,542.9L142.405,542.344L142.595,541.789L142.789,541.231L142.986,540.679L143.184,540.133L143.387,539.583L143.594,539.036L143.804,538.489L144.017,537.944L144.233,537.401L144.452,536.863L144.672,536.327L144.9,535.783L145.128,535.25L145.359,534.719L145.597,534.18L145.834,533.651L146.074,533.124L146.318,532.599L146.564,532.075L146.816,531.548L147.071,531.023L147.328,530.504L147.585,529.991L147.849,529.471L148.115,528.957L148.383,528.444L148.657,527.929L148.93,527.424L149.208,526.917L149.489,526.411L149.77,525.911L150.059,525.405L150.349,524.905L150.64,524.41L150.936,523.913L151.235,523.418L151.534,522.929L151.839,522.437L152.147,521.948L152.455,521.464L152.767,520.982L153.083,520.497L153.403,520.015L153.72,519.543L154.045,519.064L154.374,518.588L154.7,518.121L155.031,517.652L155.368,517.182L155.705,516.717L156.044,516.254L156.39,515.789L156.733,515.334L157.081,514.877L157.435,514.419L157.786,513.969L158.14,513.522L158.498,513.073L158.863,512.623L159.228,512.179L159.593,511.74L159.96,511.303L160.333,510.864L160.708,510.429L161.084,509.998L161.464,509.566L161.845,509.14L162.228,508.716L162.617,508.291L163.008,507.868L163.4,507.45L163.79,507.038L164.189,506.622L164.591,506.208L164.992,505.8L165.393,505.396L165.799,504.992L166.211,504.588L166.622,504.189L167.036,503.792L167.45,503.4L167.869,503.007L168.293,502.615L168.714,502.23L169.137,501.848L169.566,501.465L169.996,501.085L170.43,500.707L170.866,500.332L171.301,499.961L171.739,499.593L172.182,499.226L172.624,498.863L173.072,498.5L173.522,498.14L173.969,497.786L174.42,497.434L174.877,497.081L175.333,496.733L175.791,496.388L176.255,496.044L176.718,495.704L177.181,495.368L177.648,495.034L178.12,494.7L178.592,494.371L179.064,494.046L179.54,493.722L180.018,493.401L180.496,493.084L180.978,492.768L181.463,492.455L181.95,492.145L182.439,491.838L182.928,491.535L183.418,491.235L183.913,490.936L184.41,490.64L184.907,490.348L185.406,490.059L185.907,489.773L186.412,489.488L186.917,489.208L187.423,488.93L187.934,488.655L188.443,488.384L188.955,488.116L189.472,487.849L189.989,487.586L190.507,487.326L191.027,487.07L191.547,486.817L192.071,486.566L192.599,486.318L193.125,486.074L193.652,485.834L194.183,485.595L194.716,485.36L195.251,485.128L195.787,484.899L196.324,484.674L196.862,484.452L197.403,484.232L197.945,484.017L198.49,483.804L199.035,483.594L199.581,483.388L200.132,483.185L200.682,482.985L201.234,482.789L201.787,482.596L202.342,482.406L202.898,482.219L203.456,482.036L204.015,481.856L204.578,481.679L205.141,481.506L205.704,481.336L206.268,481.17L206.835,481.007L207.405,480.847L207.975,480.691L208.546,480.538L209.117,480.389L209.691,480.243L210.267,480.1L210.843,479.961L211.421,479.826L212,479.694L212.582,479.565L213.163,479.441L213.746,479.319L214.33,479.202L214.916,479.087L215.504,478.977L216.091,478.869L216.681,478.766L217.271,478.666L217.864,478.57L218.456,478.477L219.049,478.388L219.646,478.303L220.242,478.221L220.839,478.143L221.438,478.069L222.037,477.999L222.638,477.932L223.24,477.869L223.843,477.809L224.446,477.754L225.051,477.702L225.657,477.654L226.264,477.609L226.871,477.569L227.48,477.532L228.09,477.499L228.701,477.47L229.313,477.445L229.925,477.424L230.538,477.406L231.152,477.393L231.767,477.383L232.383,477.377L233,477.375L233.617,477.377ZM232.451,488.002L231.902,488.007L231.354,488.016L230.808,488.028L230.262,488.043L229.716,488.062L229.172,488.085L228.629,488.111L228.086,488.14L227.545,488.173L227.004,488.209L226.464,488.248L225.925,488.291L225.387,488.337L224.85,488.386L224.314,488.439L223.779,488.495L223.245,488.555L222.712,488.617L222.18,488.683L221.649,488.753L221.119,488.825L220.59,488.901L220.063,488.98L219.536,489.062L219.01,489.148L218.485,489.237L217.962,489.329L217.439,489.424L216.918,489.522L216.398,489.624L215.879,489.728L215.361,489.836L214.844,489.947L214.328,490.061L213.814,490.178L213.3,490.298L212.788,490.422L212.277,490.548L211.768,490.678L211.259,490.811L210.752,490.946L210.246,491.085L209.741,491.227L209.238,491.372L208.736,491.519L208.235,491.67L207.735,491.824L207.237,491.981L206.74,492.141L206.244,492.303L205.75,492.469L205.257,492.638L204.766,492.809L204.276,492.984L203.787,493.161L203.299,493.342L202.813,493.525L202.329,493.711L201.846,493.9L201.364,494.092L200.884,494.286L200.405,494.484L199.927,494.684L199.452,494.887L198.977,495.093L198.504,495.302L198.033,495.514L197.563,495.728L197.095,495.945L196.628,496.165L196.163,496.387L195.699,496.613L195.237,496.841L194.776,497.071L194.317,497.305L193.86,497.541L193.404,497.78L192.95,498.021L192.498,498.265L192.047,498.512L191.598,498.762L191.15,499.014L190.705,499.268L190.261,499.526L189.818,499.786L189.377,500.048L188.938,500.313L188.501,500.581L188.066,500.851L187.632,501.124L187.2,501.399L186.77,501.677L186.341,501.957L185.914,502.24L185.49,502.525L185.066,502.813L184.645,503.103L184.226,503.396L183.808,503.691L183.393,503.988L182.979,504.288L182.567,504.591L182.157,504.896L181.748,505.203L181.342,505.513L180.938,505.825L180.535,506.139L180.135,506.456L179.736,506.775L179.34,507.096L178.945,507.42L178.553,507.746L178.162,508.074L177.773,508.405L177.387,508.738L177.002,509.073L176.619,509.411L176.239,509.75L175.86,510.092L175.484,510.437L175.11,510.783L174.737,511.132L174.367,511.483L173.999,511.836L173.633,512.191L173.269,512.548L172.908,512.908L172.548,513.269L172.191,513.633L171.836,513.999L171.483,514.367L171.132,514.737L170.783,515.11L170.437,515.484L170.092,515.86L169.75,516.239L169.411,516.619L169.073,517.002L168.738,517.387L168.405,517.773L168.074,518.162L167.746,518.553L167.42,518.945L167.096,519.34L166.775,519.736L166.456,520.135L166.139,520.535L165.825,520.938L165.513,521.342L165.203,521.748L164.896,522.157L164.591,522.567L164.288,522.979L163.988,523.393L163.691,523.808L163.396,524.226L163.103,524.645L162.813,525.066L162.525,525.49L162.24,525.914L161.957,526.341L161.677,526.77L161.399,527.2L161.124,527.632L160.851,528.066L160.581,528.501L160.313,528.938L160.048,529.377L159.786,529.818L159.526,530.261L159.268,530.705L159.014,531.15L158.762,531.598L158.512,532.047L158.265,532.498L158.021,532.95L157.78,533.404L157.541,533.86L157.305,534.317L157.071,534.776L156.841,535.237L156.613,535.699L156.387,536.163L156.165,536.628L155.945,537.095L155.728,537.563L155.514,538.033L155.302,538.504L155.093,538.977L154.887,539.452L154.684,539.927L154.484,540.405L154.286,540.884L154.092,541.364L153.9,541.846L153.711,542.329L153.525,542.813L153.342,543.299L153.161,543.787L152.984,544.276L152.809,544.766L152.638,545.257L152.469,545.75L152.303,546.244L152.141,546.74L151.981,547.237L151.824,547.735L151.67,548.235L151.519,548.736L151.372,549.238L151.227,549.741L151.085,550.246L150.946,550.752L150.811,551.259L150.678,551.768L150.548,552.277L150.422,552.788L150.298,553.3L150.178,553.814L150.061,554.328L149.947,554.844L149.836,555.361L149.728,555.879L149.624,556.398L149.522,556.918L149.424,557.439L149.329,557.962L149.237,558.485L149.148,559.01L149.062,559.536L148.98,560.063L148.901,560.59L148.825,561.119L148.753,561.649L148.683,562.18L148.617,562.712L148.555,563.245L148.495,563.779L148.439,564.314L148.386,564.85L148.337,565.387L148.291,565.925L148.248,566.464L148.209,567.004L148.173,567.545L148.14,568.086L148.111,568.629L148.085,569.172L148.062,569.716L148.043,570.262L148.028,570.808L148.016,571.354L148.007,571.902L148.002,572.451L148,573L148.002,573.549L148.007,574.098L148.016,574.646L148.028,575.192L148.043,575.738L148.062,576.284L148.085,576.828L148.111,577.371L148.14,577.914L148.173,578.455L148.209,578.996L148.248,579.536L148.291,580.075L148.337,580.613L148.386,581.15L148.439,581.686L148.495,582.221L148.555,582.755L148.617,583.288L148.683,583.82L148.753,584.351L148.825,584.881L148.901,585.41L148.98,585.937L149.062,586.464L149.148,586.99L149.237,587.515L149.329,588.038L149.424,588.561L149.522,589.082L149.624,589.602L149.728,590.121L149.836,590.639L149.947,591.156L150.061,591.672L150.178,592.186L150.298,592.7L150.422,593.212L150.548,593.723L150.678,594.232L150.811,594.741L150.946,595.248L151.085,595.754L151.227,596.259L151.372,596.762L151.519,597.264L151.67,597.765L151.824,598.265L151.981,598.763L152.141,599.26L152.303,599.756L152.469,600.25L152.638,600.743L152.809,601.234L152.984,601.724L153.161,602.213L153.342,602.701L153.525,603.187L153.711,603.671L153.9,604.154L154.092,604.636L154.286,605.116L154.484,605.595L154.684,606.073L154.887,606.548L155.093,607.023L155.302,607.496L155.514,607.967L155.728,608.437L155.945,608.905L156.165,609.372L156.387,609.837L156.613,610.301L156.841,610.763L157.071,611.224L157.305,611.683L157.541,612.14L157.78,612.596L158.021,613.05L158.265,613.502L158.512,613.953L158.762,614.402L159.014,614.85L159.268,615.295L159.526,615.739L159.786,616.182L160.048,616.623L160.313,617.062L160.581,617.499L160.851,617.934L161.124,618.368L161.399,618.8L161.677,619.23L161.957,619.659L162.24,620.086L162.525,620.51L162.813,620.934L163.103,621.355L163.396,621.774L163.691,622.192L163.988,622.607L164.288,623.021L164.591,623.433L164.896,623.843L165.203,624.252L165.513,624.658L165.825,625.062L166.139,625.465L166.456,625.865L166.775,626.264L167.096,626.66L167.42,627.055L167.746,627.447L168.074,627.838L168.405,628.227L168.738,628.613L169.073,628.998L169.411,629.381L169.75,629.761L170.092,630.14L170.437,630.516L170.783,630.89L171.132,631.263L171.483,631.633L171.836,632.001L172.191,632.367L172.548,632.731L172.908,633.092L173.269,633.452L173.633,633.809L173.999,634.164L174.367,634.517L174.737,634.868L175.11,635.217L175.484,635.563L175.86,635.908L176.239,636.25L176.619,636.589L177.002,636.927L177.387,637.262L177.773,637.595L178.162,637.926L178.553,638.254L178.945,638.58L179.34,638.904L179.736,639.225L180.135,639.544L180.535,639.861L180.938,640.175L181.342,640.487L181.748,640.797L182.157,641.104L182.567,641.409L182.979,641.712L183.393,642.012L183.808,642.309L184.226,642.604L184.645,642.897L185.066,643.187L185.49,643.475L185.914,643.76L186.341,644.043L186.77,644.323L187.2,644.601L187.632,644.876L188.066,645.149L188.501,645.419L188.938,645.687L189.377,645.952L189.818,646.214L190.261,646.474L190.705,646.732L191.15,646.986L191.598,647.238L192.047,647.488L192.498,647.735L192.95,647.979L193.404,648.22L193.86,648.459L194.317,648.695L194.776,648.929L195.237,649.159L195.699,649.387L196.163,649.613L196.628,649.835L197.095,650.055L197.563,650.272L198.033,650.486L198.504,650.698L198.977,650.907L199.452,651.113L199.927,651.316L200.405,651.516L200.884,651.714L201.364,651.908L201.846,652.1L202.329,652.289L202.813,652.475L203.299,652.658L203.787,652.839L204.276,653.016L204.766,653.191L205.257,653.362L205.75,653.531L206.244,653.697L206.74,653.859L207.237,654.019L207.735,654.176L208.235,654.33L208.736,654.481L209.238,654.628L209.741,654.773L210.246,654.915L210.752,655.054L211.259,655.189L211.768,655.322L212.277,655.452L212.788,655.578L213.3,655.702L213.814,655.822L214.328,655.939L214.844,656.053L215.361,656.164L215.879,656.272L216.398,656.376L216.918,656.478L217.439,656.576L217.962,656.671L218.485,656.763L219.01,656.852L219.536,656.938L220.063,657.02L220.59,657.099L221.119,657.175L221.649,657.247L222.18,657.317L222.712,657.383L223.245,657.445L223.779,657.505L224.314,657.561L224.85,657.614L225.387,657.663L225.925,657.709L226.464,657.752L227.004,657.791L227.545,657.827L228.086,657.86L228.629,657.889L229.172,657.915L229.716,657.938L230.262,657.957L230.808,657.972L231.354,657.984L231.902,657.993L232.451,657.998L233,658L233.549,657.998L234.098,657.993L234.646,657.984L235.192,657.972L235.738,657.957L236.284,657.938L236.828,657.915L237.371,657.889L237.914,657.86L238.455,657.827L238.996,657.791L239.536,657.752L240.075,657.709L240.613,657.663L241.15,657.614L241.686,657.561L242.221,657.505L242.755,657.445L243.288,657.383L243.82,657.317L244.351,657.247L244.881,657.175L245.41,657.099L245.937,657.02L246.464,656.938L246.99,656.852L247.515,656.763L248.038,656.671L248.561,656.576L249.082,656.478L249.602,656.376L250.121,656.272L250.639,656.164L251.156,656.053L251.672,655.939L252.186,655.822L252.7,655.702L253.212,655.578L253.723,655.452L254.232,655.322L254.741,655.189L255.248,655.054L255.754,654.915L256.259,654.773L256.762,654.628L257.264,654.481L257.765,654.33L258.265,654.176L258.763,654.019L259.26,653.859L259.756,653.697L260.25,653.531L260.743,653.362L261.234,653.191L261.724,653.016L262.213,652.839L262.701,652.658L263.187,652.475L263.671,652.289L264.154,652.1L264.636,651.908L265.116,651.714L265.595,651.516L266.073,651.316L266.548,651.113L267.023,650.907L267.496,650.698L267.967,650.486L268.437,650.272L268.905,650.055L269.372,649.835L269.837,649.613L270.301,649.387L270.763,649.159L271.224,648.929L271.683,648.695L272.14,648.459L272.596,648.22L273.05,647.979L273.502,647.735L273.953,647.488L274.402,647.238L274.85,646.986L275.295,646.732L275.739,646.474L276.182,646.214L276.623,645.952L277.062,645.687L277.499,645.419L277.934,645.149L278.368,644.876L278.8,644.601L279.23,644.323L279.659,644.043L280.086,643.76L280.51,643.475L280.934,643.187L281.355,642.897L281.774,642.604L282.192,642.309L282.607,642.012L283.021,641.712L283.433,641.409L283.843,641.104L284.252,640.797L284.658,640.487L285.062,640.175L285.465,639.861L285.865,639.544L286.264,639.225L286.66,638.904L287.055,638.58L287.447,638.254L287.838,637.926L288.227,637.595L288.613,637.262L288.998,636.927L289.381,636.589L289.761,636.25L290.14,635.908L290.516,635.563L290.89,635.217L291.263,634.868L291.633,634.517L292.001,634.164L292.367,633.809L292.731,633.452L293.092,633.092L293.452,632.731L293.809,632.367L294.164,632.001L294.517,631.633L294.868,631.263L295.217,630.89L295.563,630.516L295.908,630.14L296.25,629.761L296.589,629.381L296.927,628.998L297.262,628.613L297.595,628.227L297.926,627.838L298.254,627.447L298.58,627.055L298.904,626.66L299.225,626.264L299.544,625.865L299.861,625.465L300.175,625.062L300.487,624.658L300.797,624.252L301.104,623.843L301.409,623.433L301.712,623.021L302.012,622.607L302.309,622.192L302.604,621.774L302.897,621.355L303.187,620.934L303.475,620.51L303.76,620.086L304.043,619.659L304.323,619.23L304.601,618.8L304.876,618.368L305.149,617.934L305.419,617.499L305.687,617.062L305.952,616.623L306.214,616.182L306.474,615.739L306.732,615.295L306.986,614.85L307.238,614.402L307.488,613.953L307.735,613.502L307.979,613.05L308.22,612.596L308.459,612.14L308.695,611.683L308.929,611.224L309.159,610.763L309.387,610.301L309.613,609.837L309.835,609.372L310.055,608.905L310.272,608.437L310.486,607.967L310.698,607.496L310.907,607.023L311.113,606.548L311.316,606.073L311.516,605.595L311.714,605.116L311.908,604.636L312.1,604.154L312.289,603.671L312.475,603.187L312.658,602.701L312.839,602.213L313.016,601.724L313.191,601.234L313.362,600.743L313.531,600.25L313.697,599.756L313.859,599.26L314.019,598.763L314.176,598.265L314.33,597.765L314.481,597.264L314.628,596.762L314.773,596.259L314.915,595.754L315.054,595.248L315.189,594.741L315.322,594.232L315.452,593.723L315.578,593.212L315.702,592.7L315.822,592.186L315.939,591.672L316.053,591.156L316.164,590.639L316.272,590.121L316.376,589.602L316.478,589.082L316.576,588.561L316.671,588.038L316.763,587.515L316.852,586.99L316.938,586.464L317.02,585.937L317.099,585.41L317.175,584.881L317.247,584.351L317.317,583.82L317.383,583.288L317.445,582.755L317.505,582.221L317.561,581.686L317.614,581.15L317.663,580.613L317.709,580.075L317.752,579.536L317.791,578.996L317.827,578.455L317.86,577.914L317.889,577.371L317.915,576.828L317.938,576.284L317.957,575.738L317.972,575.192L317.984,574.646L317.993,574.098L317.998,573.549L318,573L317.998,572.451L317.993,571.902L317.984,571.354L317.972,570.808L317.957,570.262L317.938,569.716L317.915,569.172L317.889,568.629L317.86,568.086L317.827,567.545L317.791,567.004L317.752,566.464L317.709,565.925L317.663,565.387L317.614,564.85L317.561,564.314L317.505,563.779L317.445,563.245L317.383,562.712L317.317,562.18L317.247,561.649L317.175,561.119L317.099,560.59L317.02,560.063L316.938,559.536L316.852,559.01L316.763,558.485L316.671,557.962L316.576,557.439L316.478,556.918L316.376,556.398L316.272,555.879L316.164,555.361L316.053,554.844L315.939,554.328L315.822,553.814L315.702,553.3L315.578,552.788L315.452,552.277L315.322,551.768L315.189,551.259L315.054,550.752L314.915,550.246L314.773,549.741L314.628,549.238L314.481,548.736L314.33,548.235L314.176,547.735L314.019,547.237L313.859,546.74L313.697,546.244L313.531,545.75L313.362,545.257L313.191,544.766L313.016,544.276L312.839,543.787L312.658,543.299L312.475,542.813L312.289,542.329L312.1,541.846L311.908,541.364L311.714,540.884L311.516,540.405L311.316,539.927L311.113,539.452L310.907,538.977L310.698,538.504L310.486,538.033L310.272,537.563L310.055,537.095L309.835,536.628L309.613,536.163L309.387,535.699L309.159,535.237L308.929,534.776L308.695,534.317L308.459,533.86L308.22,533.404L307.979,532.95L307.735,532.498L307.488,532.047L307.238,531.598L306.986,531.15L306.732,530.705L306.474,530.261L306.214,529.818L305.952,529.377L305.687,528.938L305.419,528.501L305.149,528.066L304.876,527.632L304.601,527.2L304.323,526.77L304.043,526.341L303.76,525.914L303.475,525.49L303.187,525.066L302.897,524.645L302.604,524.226L302.309,523.808L302.012,523.393L301.712,522.979L301.409,522.567L301.104,522.157L300.797,521.748L300.487,521.342L300.175,520.938L299.861,520.535L299.544,520.135L299.225,519.736L298.904,519.34L298.58,518.945L298.254,518.553L297.926,518.162L297.595,517.773L297.262,517.387L296.927,517.002L296.589,516.619L296.25,516.239L295.908,515.86L295.563,515.484L295.217,515.11L294.868,514.737L294.517,514.367L294.164,513.999L293.809,513.633L293.452,513.269L293.092,512.908L292.731,512.548L292.367,512.191L292.001,511.836L291.633,511.483L291.263,511.132L290.89,510.783L290.516,510.437L290.14,510.092L289.761,509.75L289.381,509.411L288.998,509.073L288.613,508.738L288.227,508.405L287.838,508.074L287.447,507.746L287.055,507.42L286.66,507.096L286.264,506.775L285.865,506.456L285.465,506.139L285.062,505.825L284.658,505.513L284.252,505.203L283.843,504.896L283.433,504.591L283.021,504.288L282.607,503.988L282.192,503.691L281.774,503.396L281.355,503.103L280.934,502.813L280.51,502.525L280.086,502.24L279.659,501.957L279.23,501.677L278.8,501.399L278.368,501.124L277.934,500.851L277.499,500.581L277.062,500.313L276.623,500.048L276.182,499.786L275.739,499.526L275.295,499.268L274.85,499.014L274.402,498.762L273.953,498.512L273.502,498.265L273.05,498.021L272.596,497.78L272.14,497.541L271.683,497.305L271.224,497.071L270.763,496.841L270.301,496.613L269.837,496.387L269.372,496.165L268.905,495.945L268.437,495.728L267.967,495.514L267.496,495.302L267.023,495.093L266.548,494.887L266.073,494.684L265.595,494.484L265.116,494.286L264.636,494.092L264.154,493.9L263.671,493.711L263.187,493.525L262.701,493.342L262.213,493.161L261.724,492.984L261.234,492.809L260.743,492.638L260.25,492.469L259.756,492.303L259.26,492.141L258.763,491.981L258.265,491.824L257.765,491.67L257.264,491.519L256.762,491.372L256.259,491.227L255.754,491.085L255.248,490.946L254.741,490.811L254.232,490.678L253.723,490.548L253.212,490.422L252.7,490.298L252.186,490.178L251.672,490.061L251.156,489.947L250.639,489.836L250.121,489.728L249.602,489.624L249.082,489.522L248.561,489.424L248.038,489.329L247.515,489.237L246.99,489.148L246.464,489.062L245.937,488.98L245.41,488.901L244.881,488.825L244.351,488.753L243.82,488.683L243.288,488.617L242.755,488.555L242.221,488.495L241.686,488.439L241.15,488.386L240.613,488.337L240.075,488.291L239.536,488.248L238.996,488.209L238.455,488.173L237.914,488.14L237.371,488.111L236.828,488.085L236.284,488.062L235.738,488.043L235.192,488.028L234.646,488.016L234.098,488.007L233.549,488.002L233,488L232.451,488.002Z" style="fill:rgb(52,152,219);"/>
            </g>
        </g>
    </g>
</svg>
