<?xml version="1.0" encoding="UTF-8" standalone="no"?>
<!DOCTYPE svg PUBLIC "-//W3C//DTD SVG 1.1//EN" "http://www.w3.org/Graphics/SVG/1.1/DTD/svg11.dtd">
<svg width="100%" height="100%" viewBox="0 0 249 298" version="1.1" xmlns="http://www.w3.org/2000/svg" xmlns:xlink="http://www.w3.org/1999/xlink" xml:space="preserve" style="fill-rule:evenodd;clip-rule:evenodd;stroke-linecap:round;stroke-miterlimit:1;">
    <g transform="matrix(1,0,0,1,-793.443,-82.3275)">
        <g id="Partager" transform="matrix(1.83687,0,0,1.83687,-141.021,-731.203)">
            <g>
                <g transform="matrix(0.493257,-0.284782,0.284782,0.493257,-74.9978,33.3281)">
                    <g transform="matrix(0.410105,0,0,0.319217,-3454.2,-1690.61)">
                        <rect x="9657" y="8976" width="216" height="370" style="fill:rgb(248,245,228);stroke:rgb(39,50,57);stroke-width:3.25px;"/>
                    </g>
                    <g transform="matrix(0.410105,0,0,0.319217,-3447.2,-1683.61)">
                        <path d="M9873,9045.38L9819,8976L9657,8976L9657,9346L9873,9346L9873,9045.38Z" style="fill:rgb(39,50,57);"/>
                    </g>
                    <g transform="matrix(0.5,0,0,0.5,271.298,621.735)">
                        <g transform="matrix(1.95565,0,0,1.95565,-1877.98,-2270.14)">
                            <path d="M1266.02,1750.02C1266.68,1750.02 1268.2,1750.37 1270.56,1751.07C1274.92,1751.46 1277.1,1751.77 1277.1,1752C1276.94,1752.31 1276.03,1752.51 1274.37,1752.59L1273.32,1752.59C1270.83,1752.59 1269.31,1754.35 1268.78,1757.88L1268.78,1759.96C1269.72,1763.48 1270.19,1765.54 1270.19,1766.14C1270.19,1767.75 1269.69,1769.77 1268.68,1772.19C1267.75,1774.08 1265.82,1776.38 1262.89,1779.1C1261.12,1780.26 1260.23,1781.14 1260.23,1781.76C1259.22,1783.6 1258.72,1784.83 1258.72,1785.45C1258.72,1786.69 1259.26,1789.05 1260.33,1792.55C1260.56,1794.15 1260.94,1794.95 1261.48,1794.95L1261.77,1794.95C1262.16,1794.95 1262.92,1794.82 1264.04,1794.56L1264.04,1794.65C1263.71,1795.03 1263.55,1795.25 1263.55,1795.31C1263.75,1795.41 1263.85,1795.51 1263.85,1795.61C1264.74,1795.54 1265.53,1795.41 1266.21,1795.21C1266.21,1795.39 1266.15,1795.58 1266.02,1795.78C1264.94,1795.87 1264.41,1796.04 1264.41,1796.26L1264.6,1796.53L1264.31,1797.02C1263.69,1797.02 1262.21,1796.52 1259.87,1795.51L1259.77,1795.51L1258.06,1795.87C1257.88,1795.56 1257.53,1795.41 1257.01,1795.41C1257.01,1795.31 1257.14,1795.21 1257.4,1795.12L1258.72,1795.41C1259.19,1795.41 1259.61,1795.28 1259.96,1795.02C1259.96,1794.58 1259.24,1791.14 1257.79,1784.69L1258.25,1782.81C1258.25,1782.75 1258.22,1782.65 1258.16,1782.52C1256.69,1783.59 1255.05,1784.13 1253.23,1784.13C1252.41,1785.63 1251.4,1788.82 1250.2,1793.7C1250.33,1793.96 1250.52,1794.15 1250.76,1794.26C1250.97,1794.26 1251.51,1794.11 1252.37,1793.8L1252.47,1793.8C1252.47,1794.11 1252.38,1794.3 1252.2,1794.36L1252.37,1794.65C1253.64,1794.59 1254.53,1794.46 1255.03,1794.26L1255.13,1794.26L1255.13,1794.46C1255.13,1794.73 1254.4,1794.99 1252.96,1795.21L1253.13,1795.51C1253.11,1795.64 1252.96,1795.76 1252.66,1795.87C1251.57,1795.87 1250.53,1795.4 1249.54,1794.46C1249.15,1794.46 1248.39,1794.59 1247.27,1794.85C1246.96,1794.65 1246.67,1794.56 1246.41,1794.56L1246.41,1794.36C1246.58,1794.36 1246.83,1794.39 1247.17,1794.46C1248.47,1794.26 1249.26,1793.98 1249.54,1793.6C1251.18,1788.74 1252,1785.64 1252,1784.33C1252,1783.89 1251.82,1783.67 1251.44,1783.67C1248.63,1784.82 1246.6,1786.69 1245.36,1789.26C1245.27,1790.04 1243.28,1792.59 1239.41,1796.92C1237.78,1798.01 1236.76,1798.8 1236.36,1799.29C1234.61,1800.37 1232.88,1800.9 1231.15,1800.9C1231.04,1800.9 1230.85,1800.84 1230.59,1800.71C1229.39,1799.94 1228.79,1798.87 1228.79,1797.49C1228.85,1797.31 1228.92,1797.22 1228.98,1797.22C1229.11,1796.31 1229.84,1795.04 1231.15,1793.41C1232.77,1791.11 1234.82,1788.94 1237.31,1786.89C1239.02,1785.41 1240.6,1783.01 1242.04,1779.69C1242.95,1777.34 1245.52,1773.96 1249.73,1769.53C1252.68,1766.67 1255.2,1764.62 1257.3,1763.38C1260.53,1761.78 1262.14,1760.42 1262.14,1759.3C1262.14,1758.91 1262.01,1757.46 1261.77,1754.95C1261.79,1754.09 1262.1,1752.99 1262.7,1751.63C1263.77,1750.56 1264.88,1750.02 1266.02,1750.02Z" style="fill:rgb(248,245,228);fill-rule:nonzero;"/>
                        </g>
                        <g id="arrow.-back" transform="matrix(-2.98696,2.91117e-16,-1.89226e-15,2.98696,562.667,1122.52)">
                            <path d="M12,9.059L12,6.5C12,6.244 11.902,5.988 11.707,5.792C11.512,5.597 11.256,5.5 11,5.5C10.744,5.5 10.488,5.597 10.293,5.792L4,12L10.293,18.207C10.488,18.402 10.744,18.5 11,18.5C11.256,18.5 11.512,18.402 11.707,18.207C11.902,18.012 12,17.755 12,17.5L12,15.011C14.75,15.079 17.755,15.577 20,19L20,18C20,13.367 16.5,9.557 12,9.059Z" style="fill:rgb(248,245,228);fill-rule:nonzero;"/>
                        </g>
                    </g>
                </g>
                <g transform="matrix(0.402742,0.402742,-0.402742,0.402742,877.072,-233.584)">
                    <g transform="matrix(0.410105,0,0,0.319217,-3454.2,-1690.61)">
                        <rect x="9657" y="8976" width="216" height="370" style="fill:rgb(248,245,228);stroke:rgb(39,50,57);stroke-width:3.25px;"/>
                    </g>
                    <g transform="matrix(0.410105,0,0,0.319217,-3447.2,-1683.61)">
                        <path d="M9873,9045.38L9819,8976L9657,8976L9657,9346L9873,9346L9873,9045.38Z" style="fill:rgb(39,50,57);"/>
                    </g>
                    <g transform="matrix(0.5,0,0,0.5,271.298,621.735)">
                        <g transform="matrix(1.95565,0,0,1.95565,-1877.98,-2270.14)">
                            <path d="M1266.02,1750.02C1266.68,1750.02 1268.2,1750.37 1270.56,1751.07C1274.92,1751.46 1277.1,1751.77 1277.1,1752C1276.94,1752.31 1276.03,1752.51 1274.37,1752.59L1273.32,1752.59C1270.83,1752.59 1269.31,1754.35 1268.78,1757.88L1268.78,1759.96C1269.72,1763.48 1270.19,1765.54 1270.19,1766.14C1270.19,1767.75 1269.69,1769.77 1268.68,1772.19C1267.75,1774.08 1265.82,1776.38 1262.89,1779.1C1261.12,1780.26 1260.23,1781.14 1260.23,1781.76C1259.22,1783.6 1258.72,1784.83 1258.72,1785.45C1258.72,1786.69 1259.26,1789.05 1260.33,1792.55C1260.56,1794.15 1260.94,1794.95 1261.48,1794.95L1261.77,1794.95C1262.16,1794.95 1262.92,1794.82 1264.04,1794.56L1264.04,1794.65C1263.71,1795.03 1263.55,1795.25 1263.55,1795.31C1263.75,1795.41 1263.85,1795.51 1263.85,1795.61C1264.74,1795.54 1265.53,1795.41 1266.21,1795.21C1266.21,1795.39 1266.15,1795.58 1266.02,1795.78C1264.94,1795.87 1264.41,1796.04 1264.41,1796.26L1264.6,1796.53L1264.31,1797.02C1263.69,1797.02 1262.21,1796.52 1259.87,1795.51L1259.77,1795.51L1258.06,1795.87C1257.88,1795.56 1257.53,1795.41 1257.01,1795.41C1257.01,1795.31 1257.14,1795.21 1257.4,1795.12L1258.72,1795.41C1259.19,1795.41 1259.61,1795.28 1259.96,1795.02C1259.96,1794.58 1259.24,1791.14 1257.79,1784.69L1258.25,1782.81C1258.25,1782.75 1258.22,1782.65 1258.16,1782.52C1256.69,1783.59 1255.05,1784.13 1253.23,1784.13C1252.41,1785.63 1251.4,1788.82 1250.2,1793.7C1250.33,1793.96 1250.52,1794.15 1250.76,1794.26C1250.97,1794.26 1251.51,1794.11 1252.37,1793.8L1252.47,1793.8C1252.47,1794.11 1252.38,1794.3 1252.2,1794.36L1252.37,1794.65C1253.64,1794.59 1254.53,1794.46 1255.03,1794.26L1255.13,1794.26L1255.13,1794.46C1255.13,1794.73 1254.4,1794.99 1252.96,1795.21L1253.13,1795.51C1253.11,1795.64 1252.96,1795.76 1252.66,1795.87C1251.57,1795.87 1250.53,1795.4 1249.54,1794.46C1249.15,1794.46 1248.39,1794.59 1247.27,1794.85C1246.96,1794.65 1246.67,1794.56 1246.41,1794.56L1246.41,1794.36C1246.58,1794.36 1246.83,1794.39 1247.17,1794.46C1248.47,1794.26 1249.26,1793.98 1249.54,1793.6C1251.18,1788.74 1252,1785.64 1252,1784.33C1252,1783.89 1251.82,1783.67 1251.44,1783.67C1248.63,1784.82 1246.6,1786.69 1245.36,1789.26C1245.27,1790.04 1243.28,1792.59 1239.41,1796.92C1237.78,1798.01 1236.76,1798.8 1236.36,1799.29C1234.61,1800.37 1232.88,1800.9 1231.15,1800.9C1231.04,1800.9 1230.85,1800.84 1230.59,1800.71C1229.39,1799.94 1228.79,1798.87 1228.79,1797.49C1228.85,1797.31 1228.92,1797.22 1228.98,1797.22C1229.11,1796.31 1229.84,1795.04 1231.15,1793.41C1232.77,1791.11 1234.82,1788.94 1237.31,1786.89C1239.02,1785.41 1240.6,1783.01 1242.04,1779.69C1242.95,1777.34 1245.52,1773.96 1249.73,1769.53C1252.68,1766.67 1255.2,1764.62 1257.3,1763.38C1260.53,1761.78 1262.14,1760.42 1262.14,1759.3C1262.14,1758.91 1262.01,1757.46 1261.77,1754.95C1261.79,1754.09 1262.1,1752.99 1262.7,1751.63C1263.77,1750.56 1264.88,1750.02 1266.02,1750.02Z" style="fill:rgb(248,245,228);fill-rule:nonzero;"/>
                        </g>
                        <g id="arrow.-back1" transform="matrix(-2.98696,2.91117e-16,-1.89226e-15,2.98696,562.667,1122.52)">
                            <path d="M12,9.059L12,6.5C12,6.244 11.902,5.988 11.707,5.792C11.512,5.597 11.256,5.5 11,5.5C10.744,5.5 10.488,5.597 10.293,5.792L4,12L10.293,18.207C10.488,18.402 10.744,18.5 11,18.5C11.256,18.5 11.512,18.402 11.707,18.207C11.902,18.012 12,17.755 12,17.5L12,15.011C14.75,15.079 17.755,15.577 20,19L20,18C20,13.367 16.5,9.557 12,9.059Z" style="fill:rgb(248,245,228);fill-rule:nonzero;"/>
                        </g>
                    </g>
                </g>
                <g transform="matrix(0.569564,5.55112e-17,3.60822e-16,0.569564,262.294,-225.686)">
                    <g transform="matrix(0.410105,0,0,0.319217,-3454.2,-1690.61)">
                        <rect x="9657" y="8976" width="216" height="370" style="fill:rgb(248,245,228);stroke:rgb(39,50,57);stroke-width:3.25px;"/>
                    </g>
                    <g transform="matrix(0.410105,0,0,0.319217,-3447.2,-1683.61)">
                        <path d="M9873,9045.38L9819,8976L9657,8976L9657,9346L9873,9346L9873,9045.38Z" style="fill:rgb(39,50,57);"/>
                    </g>
                    <g transform="matrix(0.5,0,0,0.5,271.298,621.735)">
                        <g transform="matrix(1.95565,0,0,1.95565,-1877.98,-2270.14)">
                            <path d="M1266.02,1750.02C1266.68,1750.02 1268.2,1750.37 1270.56,1751.07C1274.92,1751.46 1277.1,1751.77 1277.1,1752C1276.94,1752.31 1276.03,1752.51 1274.37,1752.59L1273.32,1752.59C1270.83,1752.59 1269.31,1754.35 1268.78,1757.88L1268.78,1759.96C1269.72,1763.48 1270.19,1765.54 1270.19,1766.14C1270.19,1767.75 1269.69,1769.77 1268.68,1772.19C1267.75,1774.08 1265.82,1776.38 1262.89,1779.1C1261.12,1780.26 1260.23,1781.14 1260.23,1781.76C1259.22,1783.6 1258.72,1784.83 1258.72,1785.45C1258.72,1786.69 1259.26,1789.05 1260.33,1792.55C1260.56,1794.15 1260.94,1794.95 1261.48,1794.95L1261.77,1794.95C1262.16,1794.95 1262.92,1794.82 1264.04,1794.56L1264.04,1794.65C1263.71,1795.03 1263.55,1795.25 1263.55,1795.31C1263.75,1795.41 1263.85,1795.51 1263.85,1795.61C1264.74,1795.54 1265.53,1795.41 1266.21,1795.21C1266.21,1795.39 1266.15,1795.58 1266.02,1795.78C1264.94,1795.87 1264.41,1796.04 1264.41,1796.26L1264.6,1796.53L1264.31,1797.02C1263.69,1797.02 1262.21,1796.52 1259.87,1795.51L1259.77,1795.51L1258.06,1795.87C1257.88,1795.56 1257.53,1795.41 1257.01,1795.41C1257.01,1795.31 1257.14,1795.21 1257.4,1795.12L1258.72,1795.41C1259.19,1795.41 1259.61,1795.28 1259.96,1795.02C1259.96,1794.58 1259.24,1791.14 1257.79,1784.69L1258.25,1782.81C1258.25,1782.75 1258.22,1782.65 1258.16,1782.52C1256.69,1783.59 1255.05,1784.13 1253.23,1784.13C1252.41,1785.63 1251.4,1788.82 1250.2,1793.7C1250.33,1793.96 1250.52,1794.15 1250.76,1794.26C1250.97,1794.26 1251.51,1794.11 1252.37,1793.8L1252.47,1793.8C1252.47,1794.11 1252.38,1794.3 1252.2,1794.36L1252.37,1794.65C1253.64,1794.59 1254.53,1794.46 1255.03,1794.26L1255.13,1794.26L1255.13,1794.46C1255.13,1794.73 1254.4,1794.99 1252.96,1795.21L1253.13,1795.51C1253.11,1795.64 1252.96,1795.76 1252.66,1795.87C1251.57,1795.87 1250.53,1795.4 1249.54,1794.46C1249.15,1794.46 1248.39,1794.59 1247.27,1794.85C1246.96,1794.65 1246.67,1794.56 1246.41,1794.56L1246.41,1794.36C1246.58,1794.36 1246.83,1794.39 1247.17,1794.46C1248.47,1794.26 1249.26,1793.98 1249.54,1793.6C1251.18,1788.74 1252,1785.64 1252,1784.33C1252,1783.89 1251.82,1783.67 1251.44,1783.67C1248.63,1784.82 1246.6,1786.69 1245.36,1789.26C1245.27,1790.04 1243.28,1792.59 1239.41,1796.92C1237.78,1798.01 1236.76,1798.8 1236.36,1799.29C1234.61,1800.37 1232.88,1800.9 1231.15,1800.9C1231.04,1800.9 1230.85,1800.84 1230.59,1800.71C1229.39,1799.94 1228.79,1798.87 1228.79,1797.49C1228.85,1797.31 1228.92,1797.22 1228.98,1797.22C1229.11,1796.31 1229.84,1795.04 1231.15,1793.41C1232.77,1791.11 1234.82,1788.94 1237.31,1786.89C1239.02,1785.41 1240.6,1783.01 1242.04,1779.69C1242.95,1777.34 1245.52,1773.96 1249.73,1769.53C1252.68,1766.67 1255.2,1764.62 1257.3,1763.38C1260.53,1761.78 1262.14,1760.42 1262.14,1759.3C1262.14,1758.91 1262.01,1757.46 1261.77,1754.95C1261.79,1754.09 1262.1,1752.99 1262.7,1751.63C1263.77,1750.56 1264.88,1750.02 1266.02,1750.02Z" style="fill:rgb(248,245,228);fill-rule:nonzero;"/>
                        </g>
                        <g id="arrow.-back2" transform="matrix(-2.98696,2.91117e-16,-1.89226e-15,2.98696,562.667,1122.52)">
                            <path d="M12,9.059L12,6.5C12,6.244 11.902,5.988 11.707,5.792C11.512,5.597 11.256,5.5 11,5.5C10.744,5.5 10.488,5.597 10.293,5.792L4,12L10.293,18.207C10.488,18.402 10.744,18.5 11,18.5C11.256,18.5 11.512,18.402 11.707,18.207C11.902,18.012 12,17.755 12,17.5L12,15.011C14.75,15.079 17.755,15.577 20,19L20,18C20,13.367 16.5,9.557 12,9.059Z" style="fill:rgb(248,245,228);fill-rule:nonzero;"/>
                        </g>
                    </g>
                </g>
                <g transform="matrix(0.824002,0,0,0.824002,202.005,87.0532)">
                    <rect x="416" y="498" width="80" height="110" style="fill:rgb(248,245,228);"/>
                </g>
                <g id="Jumelle" transform="matrix(0.10198,0,0,0.10198,552.32,518.874)">
                    <g transform="matrix(1.65945,0,0,2.05742,-805.41,-1884.05)">
                        <path d="M766,999.328C766,977.071 743.596,959 716,959C688.404,959 666,977.071 666,999.328L666,1050.84C666,1061.96 677.202,1071 691,1071L741,1071C754.798,1071 766,1061.96 766,1050.84L766,999.328Z" style="fill:rgb(39,50,57);"/>
                        <clipPath id="_clip1">
                            <path d="M766,999.328C766,977.071 743.596,959 716,959C688.404,959 666,977.071 666,999.328L666,1050.84C666,1061.96 677.202,1071 691,1071L741,1071C754.798,1071 766,1061.96 766,1050.84L766,999.328Z"/>
                        </clipPath>
                        <g clip-path="url(#_clip1)">
                            <g transform="matrix(3.84795e-17,0.506862,-0.492376,2.43175e-17,1087.25,939.088)">
                                <path d="M116.959,652.452C95.789,652.452 39.286,675.767 39.286,754C39.286,832.233 95.742,855.548 116.912,855.548C72.552,836.415 66.136,786.71 66.136,754C66.136,721.29 69.61,674.31 116.959,652.452Z" style="fill:rgb(41,71,95);"/>
                            </g>
                        </g>
                    </g>
                    <g transform="matrix(1.65945,0,0,2.05742,-1070.92,-1884.05)">
                        <path d="M766,999.328C766,977.071 743.596,959 716,959C688.404,959 666,977.071 666,999.328L666,1050.84C666,1061.96 677.202,1071 691,1071L741,1071C754.798,1071 766,1061.96 766,1050.84L766,999.328Z" style="fill:rgb(39,50,57);"/>
                        <clipPath id="_clip2">
                            <path d="M766,999.328C766,977.071 743.596,959 716,959C688.404,959 666,977.071 666,999.328L666,1050.84C666,1061.96 677.202,1071 691,1071L741,1071C754.798,1071 766,1061.96 766,1050.84L766,999.328Z"/>
                        </clipPath>
                        <g clip-path="url(#_clip2)">
                            <g transform="matrix(3.84795e-17,0.506862,-0.492376,2.43175e-17,1087.25,939.088)">
                                <path d="M116.959,652.452C95.789,652.452 39.286,675.767 39.286,754C39.286,832.233 95.742,855.548 116.912,855.548C72.552,836.415 66.136,786.71 66.136,754C66.136,721.29 69.61,674.31 116.959,652.452Z" style="fill:rgb(41,71,95);"/>
                            </g>
                        </g>
                    </g>
                    <g transform="matrix(1.64908,0,0,2.68739,-802.921,-1490.89)">
                        <g transform="matrix(1.21461,0,0,1.14351,-159.506,-559.623)">
                            <path d="M697,1047C697,1047 679.226,1041 657,1041C626.945,1041 617,1047 617,1047L617,1068C617,1068 627.008,1062 656.949,1062C679.271,1062 697,1068 697,1068L697,1047Z" style="fill:rgb(39,50,57);"/>
                            <clipPath id="_clip3">
                                <path d="M697,1047C697,1047 679.226,1041 657,1041C626.945,1041 617,1047 617,1047L617,1068C617,1068 627.008,1062 656.949,1062C679.271,1062 697,1068 697,1068L697,1047Z"/>
                            </clipPath>
                            <g clip-path="url(#_clip3)">
                                <g transform="matrix(-1.73802e-17,0.325409,-0.758876,-4.11106e-16,1360.49,970.037)">
                                    <path d="M242,892.26C242,892.26 231.285,890.065 226.523,891.992C212.123,897.82 202,911.531 202,927.5C202,942.594 211.044,955.67 224.195,961.979C229.559,964.552 242,963.392 242,963.392C242,963.392 233,942.437 233,927.5C233,912.563 242,892.26 242,892.26Z" style="fill:rgb(41,71,95);"/>
                                </g>
                            </g>
                        </g>
                        <g transform="matrix(0.910781,0,0,0.800457,40.1072,-189.537)">
                            <path d="M697,1047C697,1047 679.226,1041 657,1041C626.945,1041 617,1047 617,1047L617,1068C617,1068 627.008,1062 656.949,1062C679.271,1062 697,1068 697,1068L697,1047Z" style="fill:rgb(39,50,57);"/>
                        </g>
                    </g>
                    <g transform="matrix(1.65945,0,0,1.65945,-473.52,-1449.52)">
                        <circle cx="356" cy="1042" r="50" style="fill:rgb(52,100,115);"/>
                    </g>
                    <g transform="matrix(1.65945,0,0,1.65945,-208.008,-1449.52)">
                        <circle cx="356" cy="1042" r="50" style="fill:rgb(52,100,115);"/>
                    </g>
                </g>
                <g id="ic_stay_primary_portrait_24px" transform="matrix(5.71837,0,0,5.71837,509.166,473.282)">
                    <path d="M17,1.01L7,1C5.9,1 5.01,1.9 5.01,3L5.01,21C5.01,22.1 5.9,23 7,23L17,23C18.1,23 19,22.1 19,21L19,3C19,1.9 18.1,1.01 17,1.01ZM17,19L7,19L7,5L17,5L17,19Z" style="fill:rgb(39,50,57);fill-rule:nonzero;"/>
                </g>
            </g>
        </g>
    </g>
</svg>
