<?xml version="1.0" encoding="UTF-8" standalone="no"?>
<!DOCTYPE svg PUBLIC "-//W3C//DTD SVG 1.1//EN" "http://www.w3.org/Graphics/SVG/1.1/DTD/svg11.dtd">
<svg width="100%" height="100%" viewBox="0 0 300 277" version="1.1" xmlns="http://www.w3.org/2000/svg" xmlns:xlink="http://www.w3.org/1999/xlink" xml:space="preserve" style="fill-rule:evenodd;clip-rule:evenodd;stroke-linejoin:round;stroke-miterlimit:1.41421;">
    <g transform="matrix(1,0,0,1,-55.3622,-34.702)">
        <g id="Rejoindre" transform="matrix(1,0,0,1,-429,-180.885)">
            <g transform="matrix(-0.391026,0,0,0.391026,2454.38,-2342.57)">
                <path d="M4972.79,6954.86L4973.03,6954.86C4976.05,6954.86 4981.19,6956.84 4988.48,6960.78C4992.22,6961.23 4996.27,6962.82 5000.62,6965.55L5001.23,6966.4L5000.62,6967.32L5000.62,6967.62L5001.23,6968.48C4993.79,6969.53 4988.74,6970.53 4986.1,6971.47C4979.79,6976.06 4976.64,6979.91 4976.64,6983C4976.64,6985.73 4974.85,6992.06 4971.26,7001.98C4962.96,7014.11 4952.89,7023.9 4941.05,7031.34C4936.58,7036.1 4932.73,7039.56 4929.52,7041.72C4927.6,7044.04 4926.4,7047.39 4925.91,7051.79C4925.75,7052.56 4925.67,7053.36 4925.67,7054.17C4925.67,7054.74 4927.24,7056.2 4930.37,7058.56C4933.83,7062.35 4937,7065.11 4939.89,7066.86L4939.89,7067.17C4939.69,7067.17 4939.59,7067.27 4939.59,7067.48C4939.99,7067.52 4940.97,7068.8 4942.52,7071.32C4947.32,7074.09 4950.19,7075.47 4951.12,7075.47C4950.92,7077.79 4950.82,7079.48 4950.82,7080.54L4950.82,7080.84C4950.82,7081.49 4951.12,7082.57 4951.73,7084.08L4948.74,7084.08C4947.28,7084.08 4945.61,7082.49 4943.74,7079.32C4942.39,7078.18 4938.45,7076.1 4931.9,7073.09C4931.2,7072.03 4930.11,7071.16 4928.6,7070.47L4919.99,7071.02C4919.3,7070.65 4918.51,7070.47 4917.61,7070.47L4916.76,7070.47L4916.15,7070.77C4916.15,7070.57 4916.05,7070.47 4915.84,7070.47C4916.86,7068.07 4917.96,7066.86 4919.14,7066.86L4919.44,7066.86L4921.52,7068.39C4922.5,7068.39 4923.78,7067.7 4925.37,7066.32C4925.37,7065.22 4922.7,7062.55 4917.37,7058.32C4916.23,7058.32 4915.03,7057.42 4913.77,7055.63C4912.22,7055.63 4911.25,7054.94 4910.84,7053.56C4909.66,7051.48 4909.07,7049.9 4909.07,7048.8C4910.25,7045.1 4910.84,7042.63 4910.84,7041.41L4909.62,7040.5L4909.37,7040.5L4908.15,7041.41L4906.99,7040.5C4906.99,7040.9 4906.79,7041.11 4906.38,7041.11L4906.08,7041.11C4905.27,7040.42 4903.78,7039.52 4901.62,7038.42C4901.62,7038.63 4901.52,7038.73 4901.32,7038.73C4901.32,7038.44 4901.03,7038.16 4900.46,7037.87C4900.46,7038.24 4900.26,7038.42 4899.85,7038.42C4896.48,7036.06 4892.91,7034.88 4889.17,7034.88C4888.52,7035.29 4887.93,7035.49 4887.4,7035.49C4886.91,7035.09 4886.53,7034.88 4886.24,7034.88C4882.7,7035.86 4876.07,7036.55 4866.35,7036.96C4865.04,7036.96 4858.53,7040.31 4846.81,7047.03C4837.74,7051.38 4833,7053.56 4832.59,7053.56L4831.13,7052.64L4830.82,7052.64L4829.6,7053.56C4829.6,7053.15 4829.42,7052.95 4829.05,7052.95L4828.44,7052.95C4825.06,7052.95 4823.38,7052.56 4823.38,7051.79L4824.9,7049.41L4823.38,7049.1L4822.22,7049.1L4822.22,7048.8C4823.56,7047.58 4826.43,7045.81 4830.82,7043.49L4830.82,7043.18C4830.41,7043.18 4830.21,7042.98 4830.21,7042.57L4830.82,7040.5C4830.33,7040.13 4829.85,7039.95 4829.36,7039.95L4829.36,7039.64C4829.48,7039.24 4831.84,7037.65 4836.44,7034.88L4836.13,7034.27L4836.13,7033.72C4836.34,7032.42 4842.66,7029.25 4855.11,7024.2C4855.64,7022.9 4857.33,7021.62 4860.18,7020.36C4860.18,7020.03 4860.57,7019.64 4861.34,7019.2C4863.25,7019.56 4864.33,7019.74 4864.57,7019.74C4871.45,7015.11 4875.01,7012.54 4875.26,7012.06C4874.77,7011.65 4874.38,7011.44 4874.1,7011.44L4874.1,7011.2C4879.63,7006.03 4887.24,7002.17 4896.92,6999.6C4896.96,6998.99 4898.53,6998.3 4901.62,6997.53C4912.04,6988.37 4922.52,6982.15 4933.06,6978.85C4940.54,6975.6 4944.98,6973.52 4946.36,6972.63C4948.97,6969.74 4952.93,6966.2 4958.26,6962.01C4958.26,6960.46 4959.83,6958.87 4962.96,6957.24C4965.16,6955.66 4968.44,6954.86 4972.79,6954.86ZM4917.92,7043.18L4917.92,7047.03C4920.12,7043.49 4921.22,7041.03 4921.22,7039.64L4920.91,7039.64C4918.92,7040.46 4917.92,7041.64 4917.92,7043.18ZM4917.92,7053.25L4917.92,7053.56C4917.92,7053.84 4918.51,7054.43 4919.69,7055.33L4919.99,7055.33L4919.99,7055.02C4919.55,7053.84 4919.16,7053.25 4918.84,7053.25L4917.92,7053.25ZM4921.22,7056.49L4921.22,7056.79C4921.22,7057.08 4921.81,7057.67 4922.98,7058.56L4923.29,7058.56L4923.29,7057.71C4922.97,7056.9 4922.27,7056.49 4921.22,7056.49Z" style="fill:rgb(76,50,50);fill-rule:nonzero;"/>
            </g>
            <g transform="matrix(0.866025,0.5,-0.5,0.866025,631.773,-140.578)">
                <text x="339.931px" y="430.24px" style="font-family:'BirdsTFB', 'Birds TFB';font-size:30px;fill:rgb(76,50,50);">h</text>
            </g>
            <g transform="matrix(0.857707,0,0,0.857707,-3580.82,-5749.65)">
                <path d="M4972.79,6954.86L4973.03,6954.86C4976.05,6954.86 4981.19,6956.84 4988.48,6960.78C4992.22,6961.23 4996.27,6962.82 5000.62,6965.55L5001.23,6966.4L5000.62,6967.32L5000.62,6967.62L5001.23,6968.48C4993.79,6969.53 4988.74,6970.53 4986.1,6971.47C4979.79,6976.06 4976.64,6979.91 4976.64,6983C4976.64,6985.73 4974.85,6992.06 4971.26,7001.98C4962.96,7014.11 4952.89,7023.9 4941.05,7031.34C4936.58,7036.1 4932.73,7039.56 4929.52,7041.72C4927.6,7044.04 4926.4,7047.39 4925.91,7051.79C4925.75,7052.56 4925.67,7053.36 4925.67,7054.17C4925.67,7054.74 4927.24,7056.2 4930.37,7058.56C4933.83,7062.35 4937,7065.11 4939.89,7066.86L4939.89,7067.17C4939.69,7067.17 4939.59,7067.27 4939.59,7067.48C4939.99,7067.52 4940.97,7068.8 4942.52,7071.32C4947.32,7074.09 4950.19,7075.47 4951.12,7075.47C4950.92,7077.79 4950.82,7079.48 4950.82,7080.54L4950.82,7080.84C4950.82,7081.49 4951.12,7082.57 4951.73,7084.08L4948.74,7084.08C4947.28,7084.08 4945.61,7082.49 4943.74,7079.32C4942.39,7078.18 4938.45,7076.1 4931.9,7073.09C4931.2,7072.03 4930.11,7071.16 4928.6,7070.47L4919.99,7071.02C4919.3,7070.65 4918.51,7070.47 4917.61,7070.47L4916.76,7070.47L4916.15,7070.77C4916.15,7070.57 4916.05,7070.47 4915.84,7070.47C4916.86,7068.07 4917.96,7066.86 4919.14,7066.86L4919.44,7066.86L4921.52,7068.39C4922.5,7068.39 4923.78,7067.7 4925.37,7066.32C4925.37,7065.22 4922.7,7062.55 4917.37,7058.32C4916.23,7058.32 4915.03,7057.42 4913.77,7055.63C4912.22,7055.63 4911.25,7054.94 4910.84,7053.56C4909.66,7051.48 4909.07,7049.9 4909.07,7048.8C4910.25,7045.1 4910.84,7042.63 4910.84,7041.41L4909.62,7040.5L4909.37,7040.5L4908.15,7041.41L4906.99,7040.5C4906.99,7040.9 4906.79,7041.11 4906.38,7041.11L4906.08,7041.11C4905.27,7040.42 4903.78,7039.52 4901.62,7038.42C4901.62,7038.63 4901.52,7038.73 4901.32,7038.73C4901.32,7038.44 4901.03,7038.16 4900.46,7037.87C4900.46,7038.24 4900.26,7038.42 4899.85,7038.42C4896.48,7036.06 4892.91,7034.88 4889.17,7034.88C4888.52,7035.29 4887.93,7035.49 4887.4,7035.49C4886.91,7035.09 4886.53,7034.88 4886.24,7034.88C4882.7,7035.86 4876.07,7036.55 4866.35,7036.96C4865.04,7036.96 4858.53,7040.31 4846.81,7047.03C4837.74,7051.38 4833,7053.56 4832.59,7053.56L4831.13,7052.64L4830.82,7052.64L4829.6,7053.56C4829.6,7053.15 4829.42,7052.95 4829.05,7052.95L4828.44,7052.95C4825.06,7052.95 4823.38,7052.56 4823.38,7051.79L4824.9,7049.41L4823.38,7049.1L4822.22,7049.1L4822.22,7048.8C4823.56,7047.58 4826.43,7045.81 4830.82,7043.49L4830.82,7043.18C4830.41,7043.18 4830.21,7042.98 4830.21,7042.57L4830.82,7040.5C4830.33,7040.13 4829.85,7039.95 4829.36,7039.95L4829.36,7039.64C4829.48,7039.24 4831.84,7037.65 4836.44,7034.88L4836.13,7034.27L4836.13,7033.72C4836.34,7032.42 4842.66,7029.25 4855.11,7024.2C4855.64,7022.9 4857.33,7021.62 4860.18,7020.36C4860.18,7020.03 4860.57,7019.64 4861.34,7019.2C4863.25,7019.56 4864.33,7019.74 4864.57,7019.74C4871.45,7015.11 4875.01,7012.54 4875.26,7012.06C4874.77,7011.65 4874.38,7011.44 4874.1,7011.44L4874.1,7011.2C4879.63,7006.03 4887.24,7002.17 4896.92,6999.6C4896.96,6998.99 4898.53,6998.3 4901.62,6997.53C4912.04,6988.37 4922.52,6982.15 4933.06,6978.85C4940.54,6975.6 4944.98,6973.52 4946.36,6972.63C4948.97,6969.74 4952.93,6966.2 4958.26,6962.01C4958.26,6960.46 4959.83,6958.87 4962.96,6957.24C4965.16,6955.66 4968.44,6954.86 4972.79,6954.86ZM4917.92,7043.18L4917.92,7047.03C4920.12,7043.49 4921.22,7041.03 4921.22,7039.64L4920.91,7039.64C4918.92,7040.46 4917.92,7041.64 4917.92,7043.18ZM4917.92,7053.25L4917.92,7053.56C4917.92,7053.84 4918.51,7054.43 4919.69,7055.33L4919.99,7055.33L4919.99,7055.02C4919.55,7053.84 4919.16,7053.25 4918.84,7053.25L4917.92,7053.25ZM4921.22,7056.49L4921.22,7056.79C4921.22,7057.08 4921.81,7057.67 4922.98,7058.56L4923.29,7058.56L4923.29,7057.71C4922.97,7056.9 4922.27,7056.49 4921.22,7056.49Z" style="fill:rgb(76,50,50);fill-rule:nonzero;"/>
            </g>
            <g id="Groupe" transform="matrix(0.812401,0,0,0.812401,-5597.84,-4983.71)">
                <path d="M7726.74,6652.77L7726.79,6652.71C7758.29,6667.44 7782.16,6692.86 7782.16,6712.69C7782.16,6724.85 7768.76,6733.07 7745.25,6735.76C7728.51,6739.64 7708.79,6740.37 7671.43,6740.37L7671.34,6740.37L7671.25,6740.37C7633.89,6740.37 7614.16,6739.64 7597.43,6735.76C7573.91,6733.07 7560.52,6724.85 7560.52,6712.69C7560.52,6692.86 7584.39,6667.44 7615.88,6652.71L7615.93,6652.77L7616.06,6652.71C7630.63,6671.91 7648.74,6685.02 7668.88,6685.07C7669.67,6685.07 7670.46,6685.05 7671.25,6685L7671.34,6685.01L7671.43,6685C7672.22,6685.05 7673.01,6685.07 7673.79,6685.07C7693.94,6685.02 7712.05,6671.91 7726.61,6652.71L7726.74,6652.77ZM7782.72,6671.45C7789.13,6666.31 7795.12,6659.95 7800.61,6652.71C7832.11,6667.44 7855.98,6692.86 7855.98,6712.69C7855.98,6724.85 7842.58,6733.07 7819.07,6735.76C7810.23,6737.81 7800.56,6738.98 7787.91,6739.63C7796.01,6732.93 7800.61,6723.99 7800.61,6712.69C7800.61,6698.88 7793.91,6684.55 7782.72,6671.45L7782.72,6671.45ZM7559.95,6671.45C7553.54,6666.31 7547.55,6659.95 7542.06,6652.71C7510.57,6667.44 7486.7,6692.86 7486.7,6712.69C7486.7,6724.85 7500.09,6733.07 7523.61,6735.76C7532.44,6737.81 7542.11,6738.98 7554.77,6739.63C7546.66,6732.93 7542.06,6723.99 7542.06,6712.69C7542.06,6698.88 7548.77,6684.55 7559.95,6671.45L7559.95,6671.45ZM7671.34,6518.92L7671.43,6518.92C7703.68,6518.92 7726.79,6545.13 7726.79,6583.51C7726.79,6625.86 7702.08,6666.55 7671.43,6666.55L7671.34,6666.55L7671.25,6666.55C7640.59,6666.55 7615.88,6625.86 7615.88,6583.51C7615.88,6545.13 7639,6518.92 7671.25,6518.92L7671.34,6518.92ZM7769.08,6657.92C7787.75,6643.75 7800.61,6614.06 7800.61,6583.51C7800.61,6545.13 7777.5,6518.92 7745.25,6518.92C7737.52,6518.92 7730.31,6520.42 7723.83,6523.24C7737.33,6538.08 7745.25,6559.18 7745.25,6583.51C7745.25,6602.08 7741.29,6620.19 7734.32,6635.86L7734.61,6635.99C7747.41,6641.98 7759.15,6649.49 7769.08,6657.92L7769.08,6657.92ZM7573.6,6657.92C7554.93,6643.75 7542.06,6614.06 7542.06,6583.51C7542.06,6545.13 7565.18,6518.92 7597.43,6518.92C7605.16,6518.92 7612.36,6520.42 7618.85,6523.24C7605.35,6538.08 7597.43,6559.18 7597.43,6583.51C7597.43,6602.08 7601.38,6620.19 7608.36,6635.86L7608.07,6635.99C7595.27,6641.98 7583.52,6649.49 7573.6,6657.92L7573.6,6657.92Z" style="fill:rgb(39,50,57);"/>
            </g>
        </g>
    </g>
</svg>
